<svg width="22" height="22" viewBox="0 0 22 22" fill="none" xmlns="http://www.w3.org/2000/svg">
<g clip-path="url(#clip0_6143_37)">
<path d="M20.3752 18.8472L9.10082 18.8133L9.88188 18.0322C10.3573 17.9982 10.8327 17.7945 11.2063 17.4209L19.7639 8.86331C20.1714 8.4558 20.3752 7.94642 20.3752 7.36912C20.3752 6.79182 20.1374 6.28243 19.7639 5.87493L15.8586 1.96966C15.4511 1.56215 14.9078 1.3584 14.3305 1.3584C13.7532 1.3584 13.2438 1.56215 12.8363 1.96966L4.27866 10.5273C3.90512 10.9008 3.70136 11.3423 3.6674 11.8517L1.79967 13.7194C1.528 13.9911 1.3582 14.3646 1.3582 14.7721C1.3582 15.1797 1.528 15.5532 1.79967 15.8249L4.82201 18.8472L1.3582 18.7793C0.950696 18.7793 0.611107 19.1189 0.577148 19.5264C0.577148 19.9339 0.916737 20.3074 1.32424 20.3074L20.3752 20.3754C20.7827 20.3754 21.1223 20.0358 21.1562 19.6283C21.1562 19.1868 20.8166 18.8472 20.3752 18.8472ZM5.36535 11.614L13.923 3.05634C14.0249 2.95446 14.1946 2.88655 14.3305 2.88655C14.4663 2.88655 14.6361 2.95446 14.738 3.05634L18.6433 6.96161C18.7451 7.06349 18.8131 7.23328 18.8131 7.36912C18.8131 7.53891 18.7451 7.67475 18.6433 7.77662L10.1196 16.3343C9.88187 16.572 9.50833 16.572 9.27061 16.3343L5.36535 12.429C5.26347 12.3271 5.19555 12.1573 5.19555 12.0215C5.19555 11.8517 5.26347 11.7159 5.36535 11.614ZM4.21075 13.4478C4.2447 13.4817 4.2447 13.5157 4.27866 13.5157L8.18393 17.4209C8.21789 17.4549 8.21789 17.4549 8.25185 17.4889L6.96141 18.7793L2.95427 14.7382L4.21075 13.4478Z" fill="#5A5959"/>
</g>
<defs>
<clipPath id="clip0_6143_37">
<rect width="21.7337" height="21.7337" fill="white"/>
</clipPath>
</defs>
</svg>
