<svg width="40" height="41" viewBox="0 0 40 41" fill="none" xmlns="http://www.w3.org/2000/svg">
<g clip-path="url(#clip0_412_250)">
<path d="M40 20.5C40 9.4543 31.0457 0.5 20 0.5C8.9543 0.5 0 9.4543 0 20.5C0 31.5457 8.9543 40.5 20 40.5C31.0457 40.5 40 31.5457 40 20.5Z" fill="#F2F2F2"/>
<mask id="mask0_412_250" style="mask-type:luminance" maskUnits="userSpaceOnUse" x="10" y="10" width="20" height="21">
<path d="M30 10.5H10V30.5H30V10.5Z" fill="white"/>
</mask>
<g mask="url(#mask0_412_250)">
<path d="M29.6 20.7273C29.6 20.0182 29.5364 19.3364 29.4182 18.6818H20V22.55H25.3818C25.15 23.8 24.4455 24.8591 23.3864 25.5682V28.0773H26.6182C28.5091 26.3364 29.6 23.7727 29.6 20.7273Z" fill="#4285F4"/>
<path d="M20 30.5C22.7 30.5 24.9636 29.6045 26.6181 28.0773L23.3863 25.5682C22.4909 26.1682 21.3454 26.5227 20 26.5227C17.3954 26.5227 15.1909 24.7636 14.4045 22.4H11.0636V24.9909C12.7091 28.2591 16.0909 30.5 20 30.5Z" fill="#34A853"/>
<path d="M14.4045 22.4C14.2045 21.8 14.0909 21.1591 14.0909 20.5C14.0909 19.8409 14.2045 19.2 14.4045 18.6V16.0091H11.0636C10.3864 17.3591 10 18.8864 10 20.5C10 22.1136 10.3864 23.6409 11.0636 24.9909L14.4045 22.4Z" fill="#FBBC04"/>
<path d="M20 14.4773C21.4681 14.4773 22.7863 14.9818 23.8227 15.9727L26.6909 13.1045C24.9591 11.4909 22.6954 10.5 20 10.5C16.0909 10.5 12.7091 12.7409 11.0636 16.0091L14.4045 18.6C15.1909 16.2364 17.3954 14.4773 20 14.4773Z" fill="#E94235"/>
</g>
</g>
<defs>
<clipPath id="clip0_412_250">
<rect width="40" height="40" fill="white" transform="translate(0 0.5)"/>
</clipPath>
</defs>
</svg>
