<svg width="22" height="23" viewBox="0 0 22 23" fill="none" xmlns="http://www.w3.org/2000/svg">
<g clip-path="url(#clip0_6143_35)">
<path d="M20.3754 4.25286L18.5756 2.45304C17.5568 1.43427 15.9268 1.43427 14.908 2.45304L4.65245 12.7086C4.31286 13.0482 4.31286 13.6255 4.65245 13.9991L4.75433 14.1009L3.09034 15.731C2.78471 16.0366 2.61492 16.4441 2.58096 16.8176L0.916978 18.4816C0.679266 18.7193 0.577389 19.0589 0.611348 19.3645C0.645307 19.6702 0.84906 19.9758 1.15469 20.1116L3.66764 21.47C3.83744 21.5719 4.00723 21.6058 4.17703 21.6058C4.4487 21.6058 4.75433 21.504 4.95808 21.2662L6.01081 20.2135C6.38435 20.1796 6.79186 20.0098 7.06353 19.7041L8.72752 18.0402L8.79543 18.1081C8.96523 18.2779 9.20294 18.3797 9.44065 18.3797C9.67836 18.3797 9.91607 18.2779 10.0859 18.1081L20.3754 7.88646C20.8508 7.41103 21.1225 6.76581 21.1225 6.05268C21.1225 5.3735 20.8848 4.72828 20.3754 4.25286ZM4.07515 20.0098L2.44513 19.1268L3.19222 18.3797L4.4487 19.6362L4.07515 20.0098ZM7.64083 17.0214L5.97685 18.6854C5.87497 18.7873 5.70518 18.7873 5.6033 18.6854L4.14307 17.2251C4.07515 17.1233 4.07515 17.0553 4.07515 17.0214C4.07515 16.9874 4.07515 16.8856 4.14307 16.8176L5.80705 15.1537L6.72394 16.0705L7.64083 17.0214ZM19.2887 6.79977L9.44065 16.6478L7.81063 15.0178L6.14664 13.3538L15.9947 3.50576C16.4022 3.09826 17.0814 3.09826 17.4889 3.50576L19.2887 5.30558C19.7302 5.74705 19.7302 6.39227 19.2887 6.79977Z" fill="#5A5959"/>
</g>
<defs>
<clipPath id="clip0_6143_35">
<rect width="21.7337" height="21.7337" fill="white" transform="translate(0 0.789062)"/>
</clipPath>
</defs>
</svg>
