<svg width="38" height="37" viewBox="0 0 38 37" fill="none" xmlns="http://www.w3.org/2000/svg">
<mask id="mask0_6134_188" style="mask-type:luminance" maskUnits="userSpaceOnUse" x="0" y="0" width="38" height="37">
<path d="M0.30304 0.561768H37.695V36.0247H0.30304V0.561768Z" fill="white"/>
</mask>
<g mask="url(#mask0_6134_188)">
<path d="M78.6533 -32.1909L70.4337 -40.4104C67.8139 -43.0302 63.6139 -43.1272 60.8694 -40.646L17.3598 -0.684811L11.4826 5.20615C11.2193 5.46946 11.0807 5.81596 11.0807 6.19043V11.1526C11.0807 12.6357 10.4986 14.0217 9.47284 15.0752L7.57396 16.9604C6.78379 17.7505 6.3541 18.79 6.3541 19.899C6.3541 21.0077 6.78379 22.0611 7.57396 22.8373L0.712707 29.6986C0.393937 30.0174 0.255289 30.461 0.324734 30.9045C0.393937 31.3481 0.671233 31.7224 1.07319 31.9165L8.91849 35.8391C9.11259 35.9361 9.32044 35.9915 9.54228 35.9915C9.90252 35.9915 10.249 35.8529 10.5263 35.5895L15.4193 30.6966C16.2094 31.4868 17.2489 31.9165 18.3579 31.9165C19.4668 31.9165 20.5201 31.4868 21.2962 30.6966L23.1676 28.8115C24.2211 27.758 25.6211 27.1897 27.104 27.1897H32.0664C32.4266 27.1897 32.7871 27.0513 33.0504 26.7877L38.9831 20.8693L78.9028 -22.5991C81.3838 -25.3436 81.2868 -29.5433 78.667 -32.1632L78.6533 -32.1909ZM32.0524 23.8216L14.4075 6.17645L18.3162 2.2538L35.9613 19.899L32.0387 23.8216H32.0524ZM9.23725 32.9145L4.01156 30.2947L9.51455 24.7919L13.4372 28.7145L9.23725 32.9145ZM21.1993 26.8294L19.3142 28.7283C18.7876 29.2552 17.8727 29.2552 17.3459 28.7283L9.50056 20.883C9.23725 20.6197 9.09861 20.2732 9.09861 19.899C9.09861 19.5247 9.23725 19.178 9.50056 18.9147L11.4134 17.0158C12.9798 15.4357 13.8392 13.3427 13.8392 11.1388V9.51701L28.7121 24.3899H27.0903C24.8724 24.3899 22.7934 25.2493 21.1993 26.8294ZM76.8373 -24.484L37.9019 17.9167L20.3399 0.340942L62.7268 -38.5947C64.3764 -40.0916 66.8991 -40.0222 68.4654 -38.4421L76.6849 -30.2226C78.2513 -28.6562 78.3205 -26.1335 76.8373 -24.484Z" fill="#FFC8A5"/>
</g>
</svg>
