<svg width="66" height="66" viewBox="0 0 66 66" fill="none" xmlns="http://www.w3.org/2000/svg">
<mask id="mask0_6189_24" style="mask-type:luminance" maskUnits="userSpaceOnUse" x="9" y="10" width="50" height="48">
<path d="M9.11853 10.7451H58.3193V57.3118H9.11853V10.7451Z" fill="white"/>
</mask>
<g mask="url(#mask0_6189_24)">
<path d="M112.099 -32.2935L101.298 -43.0946C97.8557 -46.5371 92.3369 -46.6645 88.7304 -43.4042L31.5565 9.10707L23.8336 16.8481C23.4876 17.1941 23.3055 17.6496 23.3055 18.1413V24.6618C23.3055 26.6106 22.5404 28.4322 21.1924 29.8164L18.6974 32.2936C17.6591 33.3319 17.0945 34.698 17.0945 36.1551C17.0945 37.6122 17.6591 38.9965 18.6974 40.0163L9.68126 49.0324C9.2624 49.4512 9.08034 50.034 9.17137 50.6171C9.2624 51.1999 9.62652 51.6917 10.1549 51.9466L20.4639 57.1013C20.7191 57.2286 20.9922 57.3015 21.2838 57.3015C21.7571 57.3015 22.2125 57.1194 22.577 56.7734L29.0064 50.3437C30.0446 51.382 31.4107 51.9466 32.8678 51.9466C34.325 51.9466 35.7092 51.382 36.7293 50.3437L39.1881 47.8668C40.5723 46.4822 42.412 45.7355 44.3609 45.7355H50.8816C51.3552 45.7355 51.8288 45.5535 52.1748 45.2075L59.9703 37.4298L112.427 -19.6893C115.687 -23.2958 115.56 -28.8146 112.117 -32.2572L112.099 -32.2935ZM50.8635 41.3094L27.6769 18.1229L32.8131 12.9685L55.9997 36.1551L50.845 41.3094H50.8635ZM20.8831 53.2579L14.0163 49.8157L21.2472 42.5845L26.4018 47.7392L20.8831 53.2579ZM36.6017 45.2619L34.1244 47.7573C33.4325 48.4496 32.2303 48.4496 31.538 47.7573L21.229 37.4483C20.8831 37.102 20.7007 36.6469 20.7007 36.1551C20.7007 35.6634 20.8831 35.2079 21.229 34.8619L23.7425 32.3665C25.8006 30.29 26.9299 27.5397 26.9299 24.6436V22.5127L46.4737 42.0565H44.3427C41.4285 42.0565 38.6963 43.1858 36.6017 45.2619ZM109.713 -22.1665L58.5498 33.5502L35.4724 10.455L91.171 -40.7087C93.3386 -42.6757 96.6535 -42.5847 98.7119 -40.5082L109.513 -29.7071C111.571 -27.649 111.662 -24.3341 109.713 -22.1665Z" fill="#FF903D"/>
</g>
<mask id="mask1_6189_24" style="mask-type:luminance" maskUnits="userSpaceOnUse" x="7" y="8" width="50" height="48">
<path d="M7 8.66162H56.3574V55.4727H7V8.66162Z" fill="white"/>
</mask>
<g mask="url(#mask1_6189_24)">
<path d="M110.422 -34.572L99.5725 -45.4218C96.1143 -48.88 90.5704 -49.0079 86.9477 -45.7328L29.515 7.01598L21.7571 14.7921C21.4095 15.1396 21.2265 15.597 21.2265 16.0913V22.6413C21.2265 24.5991 20.4582 26.4286 19.1042 27.8192L16.5977 30.3076C15.5546 31.3506 14.9874 32.7228 14.9874 34.1866C14.9874 35.65 15.5546 37.0406 16.5977 38.0652L7.5408 47.1221C7.12002 47.5428 6.93701 48.1285 7.02867 48.7138C7.12002 49.2995 7.48605 49.7934 8.01663 50.0497L18.3724 55.2276C18.6286 55.3555 18.903 55.4287 19.1958 55.4287C19.6714 55.4287 20.1287 55.2457 20.4948 54.8981L26.9534 48.4395C27.9965 49.4825 29.3686 50.0497 30.8324 50.0497C32.2962 50.0497 33.6865 49.4825 34.7111 48.4395L37.1813 45.9511C38.5719 44.5605 40.4198 43.8103 42.3773 43.8103H48.9277C49.4032 43.8103 49.879 43.6276 50.2266 43.2797L58.0577 35.4673L110.752 -21.9109C114.027 -25.5336 113.899 -31.0772 110.44 -34.5354L110.422 -34.572ZM48.9092 39.3645L25.6179 16.0728L30.7773 10.8949L54.069 34.1866L48.8911 39.3645H48.9092ZM18.7932 51.3671L11.8953 47.9089L19.1592 40.6452L24.3371 45.8231L18.7932 51.3671ZM34.5831 43.3348L32.0947 45.8413C31.3996 46.5367 30.192 46.5367 29.4966 45.8413L19.1408 35.4855C18.7932 35.1379 18.6102 34.6805 18.6102 34.1866C18.6102 33.6926 18.7932 33.2349 19.1408 32.8873L21.6657 30.3808C23.7333 28.2951 24.8677 25.5323 24.8677 22.6232V20.4824L44.5 40.1147H42.3592C39.4316 40.1147 36.6873 41.249 34.5831 43.3348ZM108.025 -24.3989L56.6305 31.5699L33.4487 8.36998L89.3995 -43.0251C91.5769 -45.001 94.9068 -44.9094 96.9744 -42.8236L107.824 -31.9739C109.892 -29.9063 109.983 -26.5763 108.025 -24.3989Z" fill="#FFC8A5"/>
</g>
</svg>
