<svg width="14" height="14" viewBox="0 0 14 14" fill="none" xmlns="http://www.w3.org/2000/svg">
<path d="M5.83317 2.91667C5.83317 3.561 6.35551 4.08333 6.99984 4.08333C7.64417 4.08333 8.1665 3.561 8.1665 2.91667C8.1665 2.27233 7.64417 1.75 6.99984 1.75C6.35551 1.75 5.83317 2.27233 5.83317 2.91667Z" fill="#5A5959"/>
<path d="M5.83317 7.00004C5.83317 7.64437 6.35551 8.16671 6.99984 8.16671C7.64417 8.16671 8.1665 7.64437 8.1665 7.00004C8.1665 6.35571 7.64417 5.83337 6.99984 5.83337C6.35551 5.83337 5.83317 6.35571 5.83317 7.00004Z" fill="#5A5959"/>
<path d="M5.83317 11.0833C5.83317 11.7276 6.35551 12.25 6.99984 12.25C7.64417 12.25 8.1665 11.7276 8.1665 11.0833C8.1665 10.439 7.64417 9.91663 6.99984 9.91663C6.35551 9.91663 5.83317 10.439 5.83317 11.0833Z" fill="#5A5959"/>
</svg>
