<svg width="25" height="25" viewBox="0 0 25 25" fill="none" xmlns="http://www.w3.org/2000/svg">
<g clip-path="url(#clip0_6108_140)">
<path d="M21.8359 17.1451L21.7188 17.067C21.4062 16.8717 21.0547 16.7155 20.2344 16.4811H20.1953C19.9219 16.442 19.6094 16.3249 19.4922 16.2467L19.4531 16.2077C19.2969 16.0514 19.1797 15.778 19.1797 15.4655C19.1797 15.1921 19.2969 14.9187 19.4531 14.7234L20.9766 13.2C23.6719 10.5049 23.6719 6.24727 20.9766 3.51303C19.1797 1.67719 16.6797 0.700684 13.9062 0.700684C10.8203 0.700684 7.69531 2.02874 5.3125 4.37236C3.125 6.59881 1.95312 9.48928 1.95312 12.6532C1.95312 15.8171 3.16406 18.7466 5.39062 20.8949C7.61719 23.1214 10.5469 24.3322 13.6719 24.3322C16.7578 24.3322 19.6875 23.0823 21.9141 20.8559C22.3828 20.3871 22.6562 19.6841 22.6562 19.02C22.6562 18.2779 22.3438 17.5748 21.8359 17.1451ZM20.6641 19.6059C18.7891 21.5199 16.2891 22.5745 13.6719 22.5745C10.9766 22.5745 8.55469 21.559 6.64062 19.645C4.76562 17.8092 3.71094 15.3483 3.71094 12.6532C3.71094 9.95801 4.72656 7.53626 6.60156 5.6223C8.67188 3.59116 11.3281 2.41934 13.9844 2.41934C16.2891 2.41934 18.3203 3.20055 19.8047 4.72391C21.8359 6.79411 21.8359 9.91895 19.8047 11.9501L18.2422 13.5125C17.7734 14.0203 17.5 14.7234 17.5 15.4655C17.5 16.2467 17.7734 16.9108 18.2422 17.4185C18.7109 17.9263 19.6484 18.1607 19.8828 18.1998C20.4297 18.3169 20.625 18.4341 20.7812 18.5122C20.8594 18.6294 20.9375 18.8247 20.9375 19.02C20.8984 19.2153 20.7812 19.4888 20.6641 19.6059Z" fill="#111928"/>
<path d="M14.375 14.3328C13.8281 14.3328 13.3984 14.7624 13.3984 15.3093C13.3984 15.8561 13.8281 16.2858 14.375 16.2858C14.9219 16.2858 15.3516 15.8561 15.3516 15.3093C15.3516 14.7624 14.9219 14.3328 14.375 14.3328Z" fill="#111928"/>
<path d="M18.6328 10.661C18.6328 9.37201 17.5781 8.27832 16.25 8.27832C14.9219 8.27832 13.8672 9.33295 13.8672 10.661C13.8672 11.95 14.9219 13.0437 16.25 13.0437C17.5781 13.0437 18.6328 11.9891 18.6328 10.661ZM16.25 11.286C15.8984 11.286 15.625 11.0126 15.625 10.661C15.625 10.3095 15.8984 10.036 16.25 10.036C16.6016 10.036 16.875 10.3095 16.875 10.661C16.875 11.0126 16.6016 11.286 16.25 11.286Z" fill="#111928"/>
<path d="M14.5703 6.5206C14.5703 4.95818 13.2812 3.66919 11.7187 3.66919C10.1562 3.66919 8.86719 4.95818 8.86719 6.5206C8.86719 8.08302 10.1562 9.37201 11.7187 9.37201C13.2812 9.37201 14.5703 8.12208 14.5703 6.5206ZM11.7187 7.65335C11.0937 7.65335 10.625 7.14557 10.625 6.55966C10.625 5.93469 11.1328 5.46597 11.7187 5.46597C12.3047 5.46597 12.8125 5.97376 12.8125 6.55966C12.8125 7.14557 12.3437 7.65335 11.7187 7.65335Z" fill="#111928"/>
</g>
<defs>
<clipPath id="clip0_6108_140">
<rect width="25" height="24.9987" fill="white" transform="translate(0 -0.00244141)"/>
</clipPath>
</defs>
</svg>
