<svg width="21" height="21" viewBox="0 0 21 21" fill="none" xmlns="http://www.w3.org/2000/svg">
<g clip-path="url(#clip0_6603_240)">
<path d="M10.8939 20.4423C10.3689 20.4423 9.87667 20.147 9.61417 19.6548L0.7548 2.69074C0.459487 2.13292 0.557925 1.44386 1.0173 1.0173C1.47667 0.557925 2.13292 0.459487 2.72355 0.7548L19.6876 9.64699C20.2126 9.90949 20.5079 10.4345 20.4751 11.0251C20.4423 11.5829 20.0814 12.0751 19.5564 12.3048L14.3392 14.3392L12.3048 19.5564C12.1079 20.0814 11.6157 20.4423 11.0251 20.4751C10.9595 20.4095 10.9267 20.4423 10.8939 20.4423ZM2.10011 2.10011L10.8939 18.9001L13.0267 13.4532C13.0923 13.2564 13.2564 13.0923 13.4532 13.0267L18.9329 10.8939L2.10011 2.10011Z" fill="#5A5959"/>
</g>
<defs>
<clipPath id="clip0_6603_240">
<rect width="21" height="21" fill="white"/>
</clipPath>
</defs>
</svg>
