<svg width="21" height="21" viewBox="0 0 21 21" fill="none" xmlns="http://www.w3.org/2000/svg">
<path d="M19.983 6.39841L15.7502 2.9531C15.3893 2.65778 14.9299 2.62497 14.5361 2.82185C14.1424 3.01872 13.8799 3.41247 13.8799 3.87185V6.56247H6.20176C3.11738 6.56247 0.59082 9.18747 0.59082 12.4359C0.59082 15.6843 3.11738 18.3093 6.20176 18.3093H10.6314C11.0252 18.3093 11.3861 17.9812 11.3861 17.5547C11.3861 17.1281 11.058 16.8 10.6314 16.8H6.20176C3.90488 16.8 2.06738 14.8312 2.06738 12.4031C2.06738 9.97497 3.9377 8.00622 6.20176 8.00622H13.8799V10.6968C13.8799 11.1562 14.1424 11.55 14.5361 11.7468C14.7002 11.8125 14.8643 11.8453 15.0283 11.8453C15.2908 11.8453 15.5533 11.7468 15.7502 11.5828L19.983 8.17028C20.2455 7.9406 20.4096 7.61247 20.4096 7.28435C20.4424 6.92341 20.2783 6.59528 19.983 6.39841ZM15.3564 10.0406V4.5281L18.7689 7.28435L15.3564 10.0406Z" fill="#5A5959"/>
</svg>
