<svg width="18" height="18" viewBox="0 0 18 18" fill="none" xmlns="http://www.w3.org/2000/svg">
<path d="M2.36244 8.1562C2.44682 8.1562 2.55932 8.12808 2.64369 8.09995L5.76557 7.00308C6.10307 6.89058 6.27182 6.52495 6.15932 6.18745C6.04682 5.84995 5.68119 5.6812 5.34369 5.7937L3.40307 6.4687C4.33119 4.04995 6.69369 2.4187 9.39369 2.4187C12.3468 2.4187 14.9062 4.38745 15.6374 7.19995C15.7218 7.53745 16.0593 7.73433 16.3968 7.64995C16.7343 7.56558 16.9312 7.22808 16.8468 6.89058C15.9749 3.51558 12.9093 1.15308 9.36557 1.15308C6.21557 1.15308 3.43119 3.00933 2.27807 5.7937L1.68744 4.1062C1.57494 3.7687 1.20932 3.59995 0.871818 3.71245C0.534318 3.82495 0.365568 4.19058 0.478068 4.52808L1.54682 7.5937C1.71557 7.95933 2.02494 8.1562 2.36244 8.1562Z" fill="#5A5959"/>
<path d="M17.4655 13.9781L16.3123 10.9687C16.228 10.7719 16.0873 10.6031 15.8905 10.5187C15.6936 10.4344 15.4686 10.4344 15.2717 10.5187L12.178 11.7C11.8405 11.8125 11.6998 12.1781 11.8123 12.5156C11.9248 12.8531 12.2905 12.9937 12.628 12.8812L14.5686 12.15C13.4436 14.2031 11.2498 15.5531 8.80297 15.5531C6.0186 15.5531 3.57172 13.8094 2.69985 11.2219C2.58735 10.8844 2.22172 10.7156 1.91235 10.8281C1.57485 10.9406 1.4061 11.3062 1.5186 11.6156C2.55922 14.7093 5.48422 16.7906 8.80297 16.7906C11.6998 16.7906 14.3155 15.1875 15.6373 12.7125L16.2842 14.4281C16.3686 14.6812 16.6217 14.8219 16.8748 14.8219C16.9592 14.8219 17.0155 14.8219 17.0998 14.7656C17.4373 14.6812 17.578 14.3156 17.4655 13.9781Z" fill="#5A5959"/>
</svg>
