<svg width="42" height="43" viewBox="0 0 42 43" fill="none" xmlns="http://www.w3.org/2000/svg">
<path d="M36.75 1.85059H5.25002C3.01877 1.85059 1.18127 3.6999 1.18127 5.94549V37.648C1.18127 39.8936 3.01877 41.8089 5.31565 41.8089H36.8156C39.0469 41.8089 40.95 39.9596 40.95 37.648V5.94549C40.8844 3.6999 38.9813 1.85059 36.75 1.85059ZM37.9313 37.648C37.9313 38.3085 37.4063 38.8368 36.75 38.8368H5.25002C4.59377 38.8368 4.06877 38.3085 4.06877 37.648V5.94549C4.1344 5.28502 4.59377 4.8227 5.25002 4.8227H36.75C37.4063 4.8227 37.9313 5.35107 37.9313 6.01154V37.648Z" fill="#333333"/>
<path d="M28.6126 14.4663L17.1938 25.9585L13.3876 22.1278C12.7969 21.5333 11.8782 21.5333 11.2876 22.1278C10.6969 22.7222 10.6969 23.6468 11.2876 24.2413L16.1438 29.1287C16.4063 29.3929 16.8001 29.5911 17.1938 29.5911C17.5876 29.5911 17.9813 29.459 18.2438 29.1287L30.7126 16.5798C31.3032 15.9854 31.3032 15.0607 30.7126 14.4663C30.122 13.8719 29.2032 13.8719 28.6126 14.4663Z" fill="#333333"/>
</svg>
