<svg width="24" height="24" viewBox="0 0 24 24" fill="none" xmlns="http://www.w3.org/2000/svg">
<g clip-path="url(#clip0_6287_182)">
<rect width="24" height="24" fill="#F4F4F4"/>
<path d="M22.5374 18.5625L18.6749 14.7C18.1499 14.175 17.4374 13.875 16.6874 13.875C16.2374 13.875 15.7874 13.9875 15.4124 14.175L13.4624 12.225C15.6749 9.41247 15.4874 5.32497 12.8999 2.69997C10.1249 -0.0375271 5.5499 -0.0375269 2.7749 2.77497C-0.0375977 5.58747 -0.0375977 10.125 2.7749 12.9375C4.1624 14.2875 5.9999 15 7.8374 15C9.4124 15 10.9874 14.475 12.2624 13.4625L14.2124 15.4125C14.0249 15.7875 13.9124 16.2375 13.9124 16.6875C13.9124 17.4375 14.2124 18.15 14.7374 18.675L18.5999 22.5375C19.1624 23.1 19.8749 23.3625 20.5874 23.3625C21.2999 23.3625 22.0124 23.1 22.5749 22.5375C23.6249 21.45 23.6249 19.65 22.5374 18.5625ZM3.9374 11.7C1.7999 9.56247 1.7999 6.07497 3.9374 3.93747C5.0249 2.84997 6.4124 2.32497 7.7999 2.32497C9.1874 2.32497 10.6124 2.84997 11.6999 3.93747C13.8374 6.07497 13.8374 9.56247 11.6999 11.7C9.5624 13.8375 6.0749 13.8375 3.9374 11.7ZM21.3374 21.3375C20.9249 21.75 20.2124 21.7875 19.7624 21.3375L15.8999 17.475C15.6749 17.25 15.5624 16.9875 15.5624 16.6875C15.5624 16.3875 15.6749 16.125 15.8999 15.9C16.1249 15.675 16.3874 15.5625 16.6874 15.5625C16.9874 15.5625 17.2499 15.675 17.4749 15.9L21.3374 19.7625C21.7499 20.2125 21.7499 20.8875 21.3374 21.3375Z" fill="#5A5959"/>
</g>
<defs>
<clipPath id="clip0_6287_182">
<rect width="24" height="24" fill="white"/>
</clipPath>
</defs>
</svg>
