<svg width="21" height="21" viewBox="0 0 21 21" fill="none" xmlns="http://www.w3.org/2000/svg">
<path d="M1.01699 6.39841L5.24981 2.9531C5.61074 2.65778 6.07012 2.62497 6.46387 2.82185C6.85762 3.01872 7.12012 3.41247 7.12012 3.87185V6.56247H14.7982C17.8826 6.56247 20.4092 9.18747 20.4092 12.4359C20.4092 15.6843 17.8826 18.3093 14.7982 18.3093H10.3686C9.9748 18.3093 9.61387 17.9812 9.61387 17.5547C9.61387 17.1281 9.94199 16.8 10.3686 16.8H14.7982C17.0951 16.8 18.9326 14.8312 18.9326 12.4031C18.9326 9.97497 17.0623 8.00622 14.7982 8.00622H7.12012V10.6968C7.12012 11.1562 6.85762 11.55 6.46387 11.7468C6.29981 11.8125 6.13574 11.8453 5.97168 11.8453C5.70918 11.8453 5.44668 11.7468 5.24981 11.5828L1.01699 8.17028C0.754494 7.9406 0.590431 7.61247 0.590431 7.28435C0.557619 6.92341 0.721682 6.59528 1.01699 6.39841ZM5.64356 10.0406V4.5281L2.23106 7.28435L5.64356 10.0406Z" fill="#5A5959"/>
</svg>
