<svg width="25" height="25" viewBox="0 0 25 25" fill="none" xmlns="http://www.w3.org/2000/svg">
<path d="M23.4375 17.1875C22.9688 17.1875 22.5391 17.5781 22.5391 18.0859V21.5625C22.5391 21.9141 22.2656 22.1875 21.9141 22.1875H3.08594C2.73438 22.1875 2.46094 21.9141 2.46094 21.5625V18.0859C2.46094 17.5781 2.03125 17.1875 1.5625 17.1875C1.09375 17.1875 0.664062 17.5781 0.664062 18.0859V21.5625C0.664062 22.8906 1.71875 23.9453 3.04688 23.9453H21.9141C23.2422 23.9453 24.2969 22.8906 24.2969 21.5625V18.0859C24.3359 17.5781 23.9062 17.1875 23.4375 17.1875Z" fill="#111928"/>
<path d="M7.46094 8.08594L11.6406 4.02344V17.5391C11.6406 18.0078 12.0312 18.4375 12.5391 18.4375C13.0078 18.4375 13.4375 18.0469 13.4375 17.5391V4.02344L17.6172 8.08594C17.7734 8.24219 18.0078 8.32031 18.2422 8.32031C18.4766 8.32031 18.7109 8.24219 18.8672 8.04688C19.2188 7.69531 19.1797 7.14844 18.8672 6.79688L13.125 1.32813C12.7734 1.01562 12.2266 1.01562 11.9141 1.32813L6.21094 6.83594C5.85937 7.1875 5.85937 7.73438 6.21094 8.08594C6.5625 8.39844 7.10938 8.4375 7.46094 8.08594Z" fill="#111928"/>
</svg>
