<svg width="352" height="261" viewBox="0 0 352 261" fill="none" xmlns="http://www.w3.org/2000/svg">
<g filter="url(#filter0_d_6108_300)">
<path d="M65.244 242.897V0.29275H83.46V242.897H65.244ZM76.836 222.197C62.852 222.197 50.34 219.805 39.3 215.021C28.444 210.237 19.796 203.245 13.356 194.045C6.916 184.845 3.604 173.713 3.42 160.649H44.268C44.452 166.169 45.832 171.137 48.408 175.553C51.168 179.969 54.94 183.465 59.724 186.041C64.508 188.617 70.12 189.905 76.56 189.905C82.264 189.905 87.14 188.985 91.188 187.145C95.42 185.305 98.64 182.729 100.848 179.417C103.24 176.105 104.436 172.057 104.436 167.273C104.436 162.121 103.056 157.705 100.296 154.025C97.72 150.345 94.132 147.217 89.532 144.641C84.932 142.065 79.596 139.765 73.524 137.741C67.636 135.533 61.288 133.325 54.48 131.117C39.208 126.149 27.524 119.525 19.428 111.245C11.516 102.965 7.56 91.9248 7.56 78.1248C7.56 66.3488 10.32 56.3208 15.84 48.0408C21.544 39.7608 29.364 33.4128 39.3 28.9968C49.42 24.5808 60.828 22.3728 73.524 22.3728C86.588 22.3728 98.088 24.6728 108.024 29.2728C117.96 33.6888 125.78 40.1288 131.484 48.5928C137.372 57.0568 140.5 67.0848 140.868 78.6768H99.468C99.284 74.4448 98.088 70.5808 95.88 67.0848C93.672 63.4048 90.636 60.4608 86.772 58.2528C82.908 56.0448 78.308 54.9408 72.972 54.9408C68.372 54.7568 64.14 55.4928 60.276 57.1488C56.596 58.6208 53.652 60.9208 51.444 64.0488C49.236 66.9928 48.132 70.7648 48.132 75.3648C48.132 79.9648 49.236 83.8288 51.444 86.9568C53.652 89.9008 56.688 92.4768 60.552 94.6848C64.6 96.8928 69.292 99.0088 74.628 101.033C79.964 102.873 85.76 104.805 92.016 106.829C101.768 110.141 110.692 114.097 118.788 118.697C126.884 123.113 133.324 128.909 138.108 136.085C143.076 143.261 145.56 152.737 145.56 164.513C145.56 174.817 142.892 184.385 137.556 193.217C132.22 201.865 124.492 208.857 114.372 214.193C104.252 219.529 91.74 222.197 76.836 222.197ZM255.807 222.197C238.143 222.197 222.963 217.965 210.267 209.501C197.571 201.037 187.819 189.353 181.011 174.449C174.203 159.361 170.799 141.973 170.799 122.285C170.799 102.597 174.203 85.3008 181.011 70.3968C187.819 55.3088 197.571 43.5328 210.267 35.0688C222.963 26.6048 238.143 22.3728 255.807 22.3728C273.471 22.3728 288.559 26.6048 301.071 35.0688C313.767 43.5328 323.519 55.3088 330.327 70.3968C337.135 85.3008 340.539 102.597 340.539 122.285C340.539 141.973 337.135 159.361 330.327 174.449C323.519 189.353 313.767 201.037 301.071 209.501C288.559 217.965 273.471 222.197 255.807 222.197ZM255.807 187.421C264.823 187.421 272.735 184.753 279.543 179.417C286.351 174.081 291.687 166.629 295.551 157.061C299.415 147.309 301.347 135.717 301.347 122.285C301.347 108.853 299.415 97.3528 295.551 87.7848C291.687 78.0328 286.351 70.4888 279.543 65.1528C272.735 59.8168 264.823 57.1488 255.807 57.1488C246.791 57.1488 238.879 59.8168 232.071 65.1528C225.263 70.4888 219.927 78.0328 216.063 87.7848C212.199 97.3528 210.267 108.853 210.267 122.285C210.267 135.717 212.199 147.309 216.063 157.061C219.927 166.629 225.263 174.081 232.071 179.417C238.879 184.753 246.791 187.421 255.807 187.421Z" fill="white"/>
</g>
<defs>
<filter id="filter0_d_6108_300" x="0.919983" y="0.292969" width="350.119" height="260.104" filterUnits="userSpaceOnUse" color-interpolation-filters="sRGB">
<feFlood flood-opacity="0" result="BackgroundImageFix"/>
<feColorMatrix in="SourceAlpha" type="matrix" values="0 0 0 0 0 0 0 0 0 0 0 0 0 0 0 0 0 0 127 0" result="hardAlpha"/>
<feOffset dx="4" dy="11"/>
<feGaussianBlur stdDeviation="3.25"/>
<feComposite in2="hardAlpha" operator="out"/>
<feColorMatrix type="matrix" values="0 0 0 0 0 0 0 0 0 0 0 0 0 0 0 0 0 0 0.25 0"/>
<feBlend mode="normal" in2="BackgroundImageFix" result="effect1_dropShadow_6108_300"/>
<feBlend mode="normal" in="SourceGraphic" in2="effect1_dropShadow_6108_300" result="shape"/>
</filter>
</defs>
</svg>
