<svg width="25" height="26" viewBox="0 0 25 26" fill="none" xmlns="http://www.w3.org/2000/svg">
<g clip-path="url(#clip0_6108_175)">
<path d="M13.0859 13.8707V7.58199C13.0859 7.11326 12.6953 6.72266 12.2266 6.72266C11.7578 6.72266 11.3672 7.11326 11.3672 7.58199V14.2223C11.3672 14.4566 11.4453 14.691 11.6016 14.8472L15.9375 19.2611C16.0937 19.4173 16.3281 19.5345 16.5625 19.5345C16.7969 19.5345 16.9922 19.4564 17.1875 19.3001C17.5391 18.9486 17.5391 18.4017 17.1875 18.0502L13.0859 13.8707Z" fill="#111928"/>
<path d="M12.5 1.56689C5.97656 1.56689 0.703125 6.91817 0.703125 13.4803C0.703125 20.0425 6.01563 25.3938 12.5 25.3938C18.9844 25.3938 24.2969 20.0425 24.2969 13.4803C24.2969 6.91817 19.0234 1.56689 12.5 1.56689ZM12.5 23.636C6.95313 23.636 2.42188 19.066 2.42188 13.4803C2.42188 7.89468 6.95313 3.32461 12.5 3.32461C18.0469 3.32461 22.5781 7.89468 22.5781 13.4803C22.5781 19.066 18.0469 23.636 12.5 23.636Z" fill="#111928"/>
</g>
<defs>
<clipPath id="clip0_6108_175">
<rect width="25" height="24.9987" fill="white" transform="translate(0 0.980957)"/>
</clipPath>
</defs>
</svg>
