<svg width="22" height="20" viewBox="0 0 22 20" fill="none" xmlns="http://www.w3.org/2000/svg">
<path d="M19.8321 8.33812L12.3611 1.12186C11.9536 0.727699 11.4443 0.545776 10.867 0.545776C10.2897 0.545776 9.78027 0.758019 9.37277 1.12186L1.90182 8.33812C1.69806 8.55037 1.63015 8.82325 1.76598 9.06581C1.90182 9.30838 2.17349 9.45998 2.47912 9.45998H3.39601V17.0098C3.39601 18.0407 4.3129 18.8593 5.4675 18.8593H16.2664C17.421 18.8593 18.3379 18.0407 18.3379 17.0098V9.4903H19.2548C19.5604 9.4903 19.8321 9.3387 19.9679 9.09613C20.1038 8.85357 20.0358 8.55037 19.8321 8.33812ZM12.463 17.5252H9.27089V15.8576C9.27089 15.0693 9.98403 14.4325 10.867 14.4325C11.7499 14.4325 12.463 15.0693 12.463 15.8576V17.5252ZM16.8098 8.79293V17.0098C16.8098 17.2826 16.572 17.4949 16.2664 17.4949H13.9912V15.8273C13.9912 14.2809 12.5989 13.0378 10.867 13.0378C9.13505 13.0378 7.74274 14.2809 7.74274 15.8273V17.4949H5.4675C5.16187 17.4949 4.92416 17.2826 4.92416 17.0098V8.79293C4.92416 8.42908 4.61853 8.12588 4.21102 8.12588L10.4934 2.0618C10.6972 1.87987 11.0367 1.87987 11.2405 2.0618L17.5229 8.12588C17.1154 8.1562 16.8098 8.42908 16.8098 8.79293Z" fill="#5A5959"/>
</svg>
