<svg width="24" height="24" viewBox="0 0 24 24" fill="none" xmlns="http://www.w3.org/2000/svg">
<path d="M22.5 16.5C22.05 16.5 21.6375 16.875 21.6375 17.3625V20.7C21.6375 21.0375 21.375 21.3 21.0375 21.3H2.96251C2.62501 21.3 2.36251 21.0375 2.36251 20.7V17.3625C2.36251 16.875 1.95001 16.5 1.50001 16.5C1.05001 16.5 0.637512 16.875 0.637512 17.3625V20.7C0.637512 21.975 1.65001 22.9875 2.92501 22.9875H21.0375C22.3125 22.9875 23.325 21.975 23.325 20.7V17.3625C23.3625 16.875 22.95 16.5 22.5 16.5Z" fill="#111928"/>
<path d="M11.4 17.4375C11.55 17.5875 11.775 17.6625 12 17.6625C12.225 17.6625 12.4125 17.5875 12.6 17.4375L18.0375 12.15C18.375 11.8125 18.375 11.2875 18.0375 10.95C17.7 10.6125 17.175 10.6125 16.8375 10.95L12.8625 14.85V1.875C12.8625 1.425 12.4875 1.0125 12 1.0125C11.55 1.0125 11.1375 1.3875 11.1375 1.875V14.85L7.16251 10.95C6.82501 10.6125 6.30001 10.65 5.96251 10.95C5.62501 11.2875 5.66251 11.8125 5.96251 12.15L11.4 17.4375Z" fill="#111928"/>
</svg>
