<svg width="22" height="22" viewBox="0 0 22 22" fill="none" xmlns="http://www.w3.org/2000/svg">
<g clip-path="url(#clip0_6143_28)">
<path d="M19.4585 15.5532V5.16182C19.4585 4.07513 18.5076 3.22616 17.353 3.22616C17.1493 3.22616 16.9455 3.26012 16.7757 3.29408V2.88657C16.7757 1.79989 15.8249 0.950917 14.6703 0.950917C14.2628 0.950917 13.8553 1.05279 13.5496 1.25655C13.1761 0.84904 12.5988 0.611328 11.9875 0.611328C11.1046 0.611328 10.3235 1.12071 10.0179 1.83385C9.78019 1.73197 9.54248 1.69801 9.2708 1.69801C8.1162 1.69801 7.16536 2.58094 7.16536 3.63367V10.9688L6.72389 10.4254C5.94284 9.40667 4.51656 9.06708 3.39592 9.67834C2.85258 9.98397 2.44507 10.4934 2.30924 11.1046C2.1734 11.7159 2.30924 12.3611 2.71675 12.9044L5.77304 16.9455C5.94284 17.1493 6.07867 17.387 6.24847 17.5908C6.72389 18.2699 7.23327 19.017 7.94641 19.5943C9.30476 20.715 11.1385 21.1225 12.8704 21.1225C13.7194 21.1225 14.5005 21.0206 15.2476 20.8848C19.4924 19.9679 19.4924 16.7757 19.4585 15.5532ZM14.908 19.3906C13.1421 19.7641 10.4933 19.7641 8.93122 18.4397C8.38787 17.9643 7.94641 17.353 7.50494 16.7078C7.33515 16.4701 7.16536 16.2324 6.99556 15.9947L3.93926 11.9536C3.80343 11.7838 3.76947 11.58 3.80343 11.4102C3.83739 11.2405 3.93926 11.1046 4.10906 11.0027C4.55052 10.765 5.19574 10.9348 5.50137 11.3423L5.53533 11.3763L7.36911 13.5497C7.57286 13.7874 7.91245 13.8892 8.21808 13.7874C8.52371 13.6855 8.72746 13.3799 8.72746 13.0742V3.63367C8.72746 3.42991 8.99913 3.22616 9.30476 3.22616C9.61039 3.22616 9.88206 3.42991 9.88206 3.63367V9.61043C9.88206 10.0179 10.2217 10.3915 10.6631 10.3915C11.1046 10.3915 11.4102 10.0519 11.4102 9.61043V2.51302C11.4102 2.27531 11.6819 2.10552 11.9875 2.10552C12.2931 2.10552 12.5648 2.30927 12.5648 2.54698V9.8821C12.5648 10.2896 12.9044 10.6631 13.3459 10.6631C13.7873 10.6631 14.1269 10.3236 14.1269 9.8821V2.88657C14.1269 2.68282 14.3986 2.47907 14.7042 2.47907C15.0099 2.47907 15.2815 2.68282 15.2815 2.88657V10.5613C15.2815 10.9688 15.6211 11.3423 16.0626 11.3423C16.504 11.3423 16.8436 11.0027 16.8436 10.5613V5.12786C16.8776 4.9241 17.1153 4.75431 17.4209 4.75431C17.7266 4.75431 17.9982 4.95806 17.9982 5.16182V15.4513V15.5872C17.9643 17.1153 17.7266 18.7793 14.908 19.3906Z" fill="#5A5959"/>
</g>
<defs>
<clipPath id="clip0_6143_28">
<rect width="21.7337" height="21.7337" fill="white"/>
</clipPath>
</defs>
</svg>
