<svg width="34" height="17" viewBox="0 0 34 17" fill="none" xmlns="http://www.w3.org/2000/svg">
<rect x="0.65" y="0.65" width="15.7" height="15.7" rx="2.35" fill="white" stroke="#5A5959" stroke-width="1.3"/>
<mask id="path-2-inside-1_6289_23" fill="white">
<path d="M27.56 12C27.428 12 27.3181 11.956 27.2081 11.868L22.1485 6.89643C21.9505 6.69844 21.9505 6.39047 22.1485 6.19248C22.3465 5.9945 22.6544 5.9945 22.8524 6.19248L27.56 10.7901L32.2676 6.14849C32.4656 5.9505 32.7736 5.9505 32.9716 6.14849C33.1696 6.34647 33.1696 6.65445 32.9716 6.85243L27.912 11.824C27.802 11.934 27.692 12 27.56 12Z"/>
</mask>
<path d="M27.56 12C27.428 12 27.3181 11.956 27.2081 11.868L22.1485 6.89643C21.9505 6.69844 21.9505 6.39047 22.1485 6.19248C22.3465 5.9945 22.6544 5.9945 22.8524 6.19248L27.56 10.7901L32.2676 6.14849C32.4656 5.9505 32.7736 5.9505 32.9716 6.14849C33.1696 6.34647 33.1696 6.65445 32.9716 6.85243L27.912 11.824C27.802 11.934 27.692 12 27.56 12Z" fill="#5A5959"/>
<path d="M27.2081 11.868L19.4984 19.7141L19.8985 20.1072L20.3364 20.4576L27.2081 11.868ZM22.1485 6.89643L14.3703 14.6746L14.4044 14.7087L14.4388 14.7425L22.1485 6.89643ZM22.8524 6.19248L15.0743 13.9707L15.1202 14.0166L15.1667 14.062L22.8524 6.19248ZM27.56 10.7901L19.8743 18.6597L27.5967 26.2016L35.2831 18.623L27.56 10.7901ZM32.2676 6.14849L39.9907 13.9814L40.0184 13.9541L40.0458 13.9267L32.2676 6.14849ZM32.9716 6.85243L40.6812 14.6985L40.7156 14.6647L40.7498 14.6306L32.9716 6.85243ZM27.912 11.824L20.2024 3.97791L20.1679 4.01173L20.1338 4.04584L27.912 11.824ZM27.56 1C28.7703 1 30.0422 1.21161 31.2917 1.68763C32.5065 2.15041 33.4329 2.76102 34.0797 3.27845L20.3364 20.4576C22.0617 21.8378 24.5324 23 27.56 23V1ZM34.9177 4.02191L29.8581 -0.949677L14.4388 14.7425L19.4984 19.7141L34.9177 4.02191ZM29.9267 -0.881749C34.0244 3.21603 34.0244 9.87287 29.9267 13.9707L14.3703 -1.58569C9.87656 2.90806 9.87656 10.1808 14.3703 14.6746L29.9267 -0.881749ZM29.9267 13.9707C25.8289 18.0684 19.172 18.0684 15.0743 13.9707L30.6306 -1.58569C26.1369 -6.07944 18.8641 -6.07944 14.3703 -1.58569L29.9267 13.9707ZM15.1667 14.062L19.8743 18.6597L35.2457 2.92054L30.5381 -1.67708L15.1667 14.062ZM35.2831 18.623L39.9907 13.9814L24.5446 -1.6844L19.837 2.95722L35.2831 18.623ZM40.0458 13.9267C35.948 18.0244 29.2912 18.0244 25.1934 13.9267L40.7498 -1.62969C36.256 -6.12344 28.9832 -6.12344 24.4895 -1.62969L40.0458 13.9267ZM25.1934 13.9267C21.0956 9.82888 21.0956 3.17204 25.1934 -0.925745L40.7498 14.6306C45.2435 10.1369 45.2435 2.86406 40.7498 -1.62969L25.1934 13.9267ZM25.2619 -0.993674L20.2024 3.97791L35.6217 19.6701L40.6812 14.6985L25.2619 -0.993674ZM20.1338 4.04584C20.9707 3.20901 23.5052 1 27.56 1V23C31.8788 23 34.6334 20.659 35.6902 19.6022L20.1338 4.04584Z" fill="#5A5959" mask="url(#path-2-inside-1_6289_23)"/>
</svg>
