<svg width="25" height="24" viewBox="0 0 25 24" fill="none" xmlns="http://www.w3.org/2000/svg">
<path d="M20.7753 6.22499L15.6003 1.12499C15.3003 0.824988 14.8878 0.674988 14.4753 0.674988H5.47529C4.20029 0.674988 3.11279 1.72499 3.11279 3.03749V11.85C3.11279 12.3 3.48779 12.7125 3.97529 12.7125C4.46279 12.7125 4.83779 12.3375 4.83779 11.85V2.99999C4.83779 2.62499 5.13779 2.32499 5.51279 2.32499H13.9878V7.12499C13.9878 7.57499 14.3628 7.98749 14.8503 7.98749H19.6128V11.625C19.6128 12.075 19.9878 12.4875 20.4753 12.4875C20.9628 12.4875 21.3378 12.1125 21.3378 11.625V7.34999C21.2253 6.93749 21.0753 6.52499 20.7753 6.22499ZM15.6378 3.52499L18.4503 6.29999H15.6378V3.52499Z" fill="#111928"/>
<path d="M20.4002 19.425C19.9502 19.425 19.5377 19.8 19.5377 20.2875V21.0375C19.5377 21.4125 19.2377 21.7125 18.8627 21.7125H5.4752C5.1002 21.7125 4.8002 21.4125 4.8002 21.0375V20.5125C4.8002 20.0625 4.4252 19.65 3.9377 19.65C3.4502 19.65 3.0752 20.025 3.0752 20.5125V21C3.0752 22.275 4.1252 23.3625 5.4377 23.3625H18.8252C20.1002 23.3625 21.1877 22.3125 21.1877 21V20.25C21.2252 19.8 20.8502 19.425 20.4002 19.425Z" fill="#111928"/>
<path d="M17.0625 14.25H19.125C19.575 14.25 19.9875 13.875 19.9875 13.3875C19.9875 12.9 19.6125 12.525 19.125 12.525H17.0625C16.05 12.525 15.1875 13.3875 15.1875 14.4V18.9375C15.1875 19.3875 15.5625 19.8 16.05 19.8C16.5375 19.8 16.9125 19.425 16.9125 18.9375V16.575H18.3375C18.7875 16.575 19.2 16.2 19.2 15.7125C19.2 15.225 18.825 14.85 18.3375 14.85H16.875V14.3625C16.875 14.3625 16.95 14.25 17.0625 14.25Z" fill="#111928"/>
<path d="M11.9625 19.8375C13.275 19.8375 14.3625 18.75 14.3625 17.4V14.925C14.3625 13.575 13.275 12.4875 11.9625 12.4875H10.2375C9.7875 12.4875 9.375 12.8625 9.375 13.35V19.0125C9.375 19.4625 9.75 19.875 10.2375 19.875H11.9625V19.8375ZM11.0625 14.175H11.925C12.3 14.175 12.6375 14.5125 12.6375 14.925V17.4C12.6375 17.8125 12.3 18.15 11.925 18.15H11.0625V14.175Z" fill="#111928"/>
<path d="M5.2502 19.8375C5.7002 19.8375 6.1127 19.4625 6.1127 18.975V16.725H7.9502C8.4002 16.725 8.8127 16.35 8.8127 15.8625V13.3875C8.8127 12.9375 8.4377 12.525 7.9502 12.525H5.2502C4.8002 12.525 4.3877 12.9 4.3877 13.3875V18.975C4.4252 19.4625 4.8002 19.8375 5.2502 19.8375ZM6.1127 14.25H7.0877V15.0375H6.1127V14.25Z" fill="#111928"/>
</svg>
