<svg width="24" height="24" viewBox="0 0 24 24" fill="none" xmlns="http://www.w3.org/2000/svg">
<path d="M12 14.2125C12.45 14.2125 12.8625 13.8375 12.8625 13.35V1.87495C12.8625 1.42495 12.4875 1.01245 12 1.01245C11.55 1.01245 11.1375 1.38745 11.1375 1.87495V13.3875C11.175 13.8375 11.55 14.2125 12 14.2125Z" fill="#111928"/>
<path d="M16.1625 3.63743C15.75 3.44993 15.225 3.63743 15.0375 4.04993C14.85 4.46243 15.0375 4.98743 15.45 5.17493C18.45 6.52493 20.4 9.56243 20.4 12.8624C20.4 17.5124 16.6125 21.2999 11.9625 21.2999C7.3125 21.2999 3.5625 17.5124 3.5625 12.8624C3.5625 9.56243 5.5125 6.56243 8.5125 5.17493C8.925 4.98743 9.1125 4.49993 8.925 4.04993C8.7375 3.63743 8.25 3.44993 7.8 3.63743C4.2375 5.28743 1.875 8.88743 1.875 12.8624C1.875 18.4499 6.4125 22.9874 12 22.9874C17.5875 22.9874 22.125 18.4499 22.125 12.8624C22.125 8.88743 19.7625 5.28743 16.1625 3.63743Z" fill="#111928"/>
</svg>
