<svg width="22" height="22" viewBox="0 0 22 22" fill="none" xmlns="http://www.w3.org/2000/svg">
<g clip-path="url(#clip0_6143_36)">
<path d="M20.409 16.8097L16.9113 13.3119C16.4359 12.8365 15.7906 12.5648 15.1115 12.5648C14.704 12.5648 14.2964 12.6667 13.9569 12.8365L12.191 11.0706C14.1946 8.52372 14.0248 4.8222 11.6816 2.44508C9.16866 -0.0339146 5.02568 -0.0339144 2.51272 2.513C-0.0341896 5.05991 -0.0341896 9.16894 2.51272 11.7158C3.7692 12.9384 5.43319 13.5836 7.09717 13.5836C8.52344 13.5836 9.94972 13.1082 11.1043 12.1913L12.8702 13.9571C12.7004 14.2967 12.5985 14.7042 12.5985 15.1117C12.5985 15.7909 12.8702 16.4361 13.3456 16.9116L16.8434 20.4093C17.3527 20.9187 17.998 21.1564 18.6432 21.1564C19.2884 21.1564 19.9336 20.9187 20.443 20.4093C21.3939 19.4245 21.3939 17.7945 20.409 16.8097ZM3.56545 10.5952C1.62979 8.65955 1.62979 5.50138 3.56545 3.56572C4.55026 2.58092 5.80673 2.10549 7.06321 2.10549C8.31969 2.10549 9.61013 2.58092 10.5949 3.56572C12.5306 5.50138 12.5306 8.65955 10.5949 10.5952C8.65928 12.5309 5.5011 12.5309 3.56545 10.5952ZM19.3224 19.3226C18.9488 19.6962 18.3036 19.7301 17.8961 19.3226L14.3983 15.8249C14.1946 15.6211 14.0927 15.3834 14.0927 15.1117C14.0927 14.8401 14.1946 14.6024 14.3983 14.3986C14.6021 14.1948 14.8398 14.093 15.1115 14.093C15.3831 14.093 15.6208 14.1948 15.8246 14.3986L19.3224 17.8964C19.6959 18.3039 19.6959 18.9151 19.3224 19.3226Z" fill="#5A5959"/>
</g>
<defs>
<clipPath id="clip0_6143_36">
<rect width="21.7337" height="21.7337" fill="white"/>
</clipPath>
</defs>
</svg>
