<svg width="25" height="25" viewBox="0 0 25 25" fill="none" xmlns="http://www.w3.org/2000/svg">
<g clip-path="url(#clip0_6108_158)">
<path d="M22.417 6.36618C22.417 5.46779 21.6748 4.7647 20.7764 4.72564L17.3389 4.68658C15.6982 2.18671 12.7686 -0.274094 8.31543 0.428994C7.84668 0.507115 7.49512 0.93678 7.57324 1.44457C7.65137 1.91329 8.08105 2.26483 8.58887 2.18671C11.7139 1.67893 13.8232 3.12416 15.1123 4.68658L12.6514 4.64752H12.6123C12.1826 4.64752 11.7529 4.84282 11.4404 5.11625L3.15918 13.358C2.69043 13.8267 2.45605 14.4126 2.45605 15.0767C2.45605 15.7407 2.69043 16.3266 3.15918 16.7953L10.3076 23.9434C10.7764 24.4121 11.4014 24.6465 12.0264 24.6465C12.6514 24.6465 13.2764 24.4121 13.7451 23.9434L22.0264 15.6626C22.3389 15.3501 22.5342 14.9204 22.4951 14.4517L22.417 6.36618ZM12.5342 22.7325C12.2607 23.0059 11.8311 23.0059 11.5576 22.7325L4.40918 15.5844C4.29199 15.4673 4.21387 15.272 4.21387 15.1157C4.21387 14.9204 4.29199 14.7642 4.40918 14.647L12.6904 6.36618L16.3623 6.4443C16.5186 6.75678 16.6357 7.03021 16.7529 7.26457C16.0889 7.65517 15.6592 8.39732 15.6592 9.21759C15.6592 10.4675 16.6748 11.4831 17.9248 11.4831C19.1748 11.4831 20.1904 10.4675 20.1904 9.21759C20.1904 8.16296 19.4873 7.30363 18.5107 7.03021C18.4326 6.87397 18.3936 6.67866 18.3154 6.52242L20.6592 6.56148L20.8154 14.5298L12.5342 22.7325ZM17.8857 8.63169C18.1592 8.63169 18.3936 8.86605 18.3936 9.13947C18.3936 9.41289 18.1592 9.64726 17.8857 9.64726C17.6123 9.64726 17.3779 9.41289 17.3779 9.13947C17.3779 8.86605 17.6123 8.63169 17.8857 8.63169Z" fill="#111928"/>
</g>
<defs>
<clipPath id="clip0_6108_158">
<rect width="25" height="24.9987" fill="white" transform="translate(-0.00488281 -0.000488281)"/>
</clipPath>
</defs>
</svg>
