<svg width="24" height="24" viewBox="0 0 24 24" fill="none" xmlns="http://www.w3.org/2000/svg">
<path d="M18.3377 3.29995H15.4502V2.66245C15.4502 1.53745 14.5502 0.637451 13.4252 0.637451H10.5377C9.4127 0.637451 8.5127 1.53745 8.5127 2.66245V3.29995H5.6252C4.5377 3.29995 3.6377 4.19995 3.6377 5.28745V6.41245C3.6377 7.23745 4.1252 7.91245 4.8377 8.21245L5.4377 21.1874C5.5127 22.4249 6.4877 23.3624 7.7252 23.3624H16.1627C17.4002 23.3624 18.4127 22.3874 18.4502 21.1874L19.1252 8.17495C19.8377 7.87495 20.3252 7.16245 20.3252 6.37495V5.24995C20.3252 4.19995 19.4252 3.29995 18.3377 3.29995ZM10.2377 2.66245C10.2377 2.47495 10.3877 2.32495 10.5752 2.32495H13.4627C13.6502 2.32495 13.8002 2.47495 13.8002 2.66245V3.29995H10.2752V2.66245H10.2377ZM5.3627 5.28745C5.3627 5.13745 5.4752 4.98745 5.6627 4.98745H18.3377C18.4877 4.98745 18.6377 5.09995 18.6377 5.28745V6.41245C18.6377 6.56245 18.5252 6.71245 18.3377 6.71245H5.6627C5.5127 6.71245 5.3627 6.59995 5.3627 6.41245V5.28745V5.28745ZM16.2002 21.6749H7.8002C7.4627 21.6749 7.2002 21.4124 7.2002 21.1124L6.6002 8.39995H17.4377L16.8377 21.1124C16.8002 21.4124 16.5377 21.6749 16.2002 21.6749Z" fill="#5A5959"/>
<path d="M12.0002 12.1499C11.5502 12.1499 11.1377 12.5249 11.1377 13.0124V17.7749C11.1377 18.2249 11.5127 18.6374 12.0002 18.6374C12.4502 18.6374 12.8627 18.2624 12.8627 17.7749V13.0124C12.8627 12.5249 12.4502 12.1499 12.0002 12.1499Z" fill="#5A5959"/>
<path d="M15.0004 12.9001C14.5129 12.8626 14.1379 13.2001 14.1004 13.6876L13.8754 16.9876C13.8379 17.4376 14.1754 17.8501 14.6629 17.8876C14.7004 17.8876 14.7004 17.8876 14.7379 17.8876C15.1879 17.8876 15.5629 17.5501 15.5629 17.1001L15.7879 13.8001C15.7879 13.3126 15.4504 12.9376 15.0004 12.9001Z" fill="#5A5959"/>
<path d="M8.96245 12.9001C8.51245 12.9376 8.13745 13.3501 8.17495 13.8001L8.43745 17.1001C8.47495 17.5501 8.84995 17.8876 9.26245 17.8876C9.29995 17.8876 9.29995 17.8876 9.33745 17.8876C9.78745 17.8501 10.1625 17.4376 10.125 16.9876L9.86245 13.6876C9.86245 13.2001 9.44995 12.8626 8.96245 12.9001Z" fill="#5A5959"/>
</svg>
