<svg width="25" height="24" viewBox="0 0 25 24" fill="none" xmlns="http://www.w3.org/2000/svg">
<g clip-path="url(#clip0_6624_247)">
<path d="M20.7753 6.22499L15.6003 1.12499C15.3003 0.824988 14.8878 0.674988 14.4753 0.674988H5.47529C4.20029 0.674988 3.11279 1.72499 3.11279 3.03749V11.85C3.11279 12.3 3.48779 12.7125 3.97529 12.7125C4.46279 12.7125 4.83779 12.3375 4.83779 11.85V2.99999C4.83779 2.62499 5.13779 2.32499 5.51279 2.32499H13.9878V7.12499C13.9878 7.57499 14.3628 7.98749 14.8503 7.98749H19.6128V11.625C19.6128 12.075 19.9878 12.4875 20.4753 12.4875C20.9628 12.4875 21.3378 12.1125 21.3378 11.625V7.34999C21.2253 6.93749 21.0753 6.52499 20.7753 6.22499ZM15.6378 3.52499L18.4503 6.29999H15.6378V3.52499Z" fill="#111928"/>
<path d="M20.4002 19.425C19.9502 19.425 19.5377 19.8 19.5377 20.2875V21.0375C19.5377 21.4125 19.2377 21.7125 18.8627 21.7125H5.4752C5.1002 21.7125 4.8002 21.4125 4.8002 21.0375V20.5125C4.8002 20.0625 4.4252 19.65 3.9377 19.65C3.4502 19.65 3.0752 20.025 3.0752 20.5125V21C3.0752 22.275 4.1252 23.3625 5.4377 23.3625H18.8252C20.1002 23.3625 21.1877 22.3125 21.1877 21V20.25C21.2252 19.8 20.8502 19.425 20.4002 19.425Z" fill="#111928"/>
<mask id="path-3-outside-1_6624_247" maskUnits="userSpaceOnUse" x="8" y="11" width="9" height="9" fill="black">
<rect fill="white" x="8" y="11" width="9" height="9"/>
<path d="M11.7969 13.0059C11.7969 12.8359 11.7852 12.7129 11.7617 12.6367C11.7383 12.5605 11.7266 12.4902 11.7266 12.4258C11.7266 12.3379 11.7705 12.2676 11.8584 12.2148C11.9521 12.1562 12.0635 12.127 12.1924 12.127C12.4912 12.127 12.7285 12.2061 12.9043 12.3643C13.0801 12.5166 13.168 12.7012 13.168 12.918V17.04C13.1738 17.2275 13.1885 17.4004 13.2119 17.5586C13.2412 17.7168 13.2881 17.8516 13.3525 17.9629C13.417 18.0742 13.5049 18.1621 13.6162 18.2266C13.7275 18.2852 13.8711 18.3145 14.0469 18.3145C14.2168 18.3145 14.3574 18.2822 14.4688 18.2178C14.5859 18.1475 14.6797 18.0537 14.75 17.9365C14.8203 17.8193 14.8701 17.6846 14.8994 17.5322C14.9287 17.374 14.9434 17.21 14.9434 17.04V13.0059C14.9434 12.8359 14.9316 12.7129 14.9082 12.6367C14.8848 12.5605 14.873 12.4902 14.873 12.4258C14.873 12.3379 14.9199 12.2676 15.0137 12.2148C15.1074 12.1562 15.2188 12.127 15.3477 12.127C15.6465 12.127 15.8809 12.2061 16.0508 12.3643C16.2266 12.5166 16.3145 12.7012 16.3145 12.918V17.04C16.3145 17.3213 16.2852 17.6084 16.2266 17.9014C16.1738 18.1885 16.0684 18.4521 15.9102 18.6924C15.752 18.9268 15.5293 19.1201 15.2422 19.2725C14.9551 19.4248 14.5801 19.501 14.1172 19.501C13.9238 19.501 13.7422 19.4775 13.5723 19.4307C13.4023 19.3838 13.2471 19.3193 13.1064 19.2373C12.9658 19.1611 12.8428 19.0732 12.7373 18.9736C12.6318 18.8682 12.5469 18.7568 12.4824 18.6396C12.4238 18.7568 12.3359 18.8682 12.2188 18.9736C12.1074 19.0732 11.9785 19.1611 11.832 19.2373C11.6855 19.3193 11.5273 19.3838 11.3574 19.4307C11.1875 19.4775 11.0176 19.501 10.8477 19.501C10.5137 19.501 10.2266 19.4629 9.98633 19.3867C9.75195 19.3105 9.55273 19.2051 9.38867 19.0703C9.22461 18.9414 9.09277 18.792 8.99316 18.6221C8.89941 18.4521 8.82617 18.2764 8.77344 18.0947C8.7207 17.9131 8.68555 17.7285 8.66797 17.541C8.65625 17.3535 8.65039 17.1807 8.65039 17.0225V13.0059C8.65039 12.8359 8.63574 12.7129 8.60645 12.6367C8.58301 12.5605 8.57129 12.4902 8.57129 12.4258C8.57129 12.3379 8.61816 12.2676 8.71191 12.2148C8.80566 12.1562 8.91699 12.127 9.0459 12.127C9.34473 12.127 9.5791 12.2061 9.74902 12.3643C9.9248 12.5166 10.0127 12.7012 10.0127 12.918V17.04C10.0127 17.1982 10.0215 17.3564 10.0391 17.5146C10.0625 17.667 10.1035 17.8018 10.1621 17.9189C10.2266 18.0361 10.3174 18.1328 10.4346 18.209C10.5518 18.2793 10.707 18.3145 10.9004 18.3145C11.0703 18.3145 11.2109 18.2822 11.3223 18.2178C11.4395 18.1475 11.5332 18.0537 11.6035 17.9365C11.6738 17.8193 11.7236 17.6846 11.7529 17.5322C11.7822 17.374 11.7969 17.21 11.7969 17.04V13.0059Z"/>
</mask>
<path d="M11.7969 13.0059C11.7969 12.8359 11.7852 12.7129 11.7617 12.6367C11.7383 12.5605 11.7266 12.4902 11.7266 12.4258C11.7266 12.3379 11.7705 12.2676 11.8584 12.2148C11.9521 12.1562 12.0635 12.127 12.1924 12.127C12.4912 12.127 12.7285 12.2061 12.9043 12.3643C13.0801 12.5166 13.168 12.7012 13.168 12.918V17.04C13.1738 17.2275 13.1885 17.4004 13.2119 17.5586C13.2412 17.7168 13.2881 17.8516 13.3525 17.9629C13.417 18.0742 13.5049 18.1621 13.6162 18.2266C13.7275 18.2852 13.8711 18.3145 14.0469 18.3145C14.2168 18.3145 14.3574 18.2822 14.4688 18.2178C14.5859 18.1475 14.6797 18.0537 14.75 17.9365C14.8203 17.8193 14.8701 17.6846 14.8994 17.5322C14.9287 17.374 14.9434 17.21 14.9434 17.04V13.0059C14.9434 12.8359 14.9316 12.7129 14.9082 12.6367C14.8848 12.5605 14.873 12.4902 14.873 12.4258C14.873 12.3379 14.9199 12.2676 15.0137 12.2148C15.1074 12.1562 15.2188 12.127 15.3477 12.127C15.6465 12.127 15.8809 12.2061 16.0508 12.3643C16.2266 12.5166 16.3145 12.7012 16.3145 12.918V17.04C16.3145 17.3213 16.2852 17.6084 16.2266 17.9014C16.1738 18.1885 16.0684 18.4521 15.9102 18.6924C15.752 18.9268 15.5293 19.1201 15.2422 19.2725C14.9551 19.4248 14.5801 19.501 14.1172 19.501C13.9238 19.501 13.7422 19.4775 13.5723 19.4307C13.4023 19.3838 13.2471 19.3193 13.1064 19.2373C12.9658 19.1611 12.8428 19.0732 12.7373 18.9736C12.6318 18.8682 12.5469 18.7568 12.4824 18.6396C12.4238 18.7568 12.3359 18.8682 12.2188 18.9736C12.1074 19.0732 11.9785 19.1611 11.832 19.2373C11.6855 19.3193 11.5273 19.3838 11.3574 19.4307C11.1875 19.4775 11.0176 19.501 10.8477 19.501C10.5137 19.501 10.2266 19.4629 9.98633 19.3867C9.75195 19.3105 9.55273 19.2051 9.38867 19.0703C9.22461 18.9414 9.09277 18.792 8.99316 18.6221C8.89941 18.4521 8.82617 18.2764 8.77344 18.0947C8.7207 17.9131 8.68555 17.7285 8.66797 17.541C8.65625 17.3535 8.65039 17.1807 8.65039 17.0225V13.0059C8.65039 12.8359 8.63574 12.7129 8.60645 12.6367C8.58301 12.5605 8.57129 12.4902 8.57129 12.4258C8.57129 12.3379 8.61816 12.2676 8.71191 12.2148C8.80566 12.1562 8.91699 12.127 9.0459 12.127C9.34473 12.127 9.5791 12.2061 9.74902 12.3643C9.9248 12.5166 10.0127 12.7012 10.0127 12.918V17.04C10.0127 17.1982 10.0215 17.3564 10.0391 17.5146C10.0625 17.667 10.1035 17.8018 10.1621 17.9189C10.2266 18.0361 10.3174 18.1328 10.4346 18.209C10.5518 18.2793 10.707 18.3145 10.9004 18.3145C11.0703 18.3145 11.2109 18.2822 11.3223 18.2178C11.4395 18.1475 11.5332 18.0537 11.6035 17.9365C11.6738 17.8193 11.7236 17.6846 11.7529 17.5322C11.7822 17.374 11.7969 17.21 11.7969 17.04V13.0059Z" fill="black"/>
<path d="M11.8584 12.2148L11.9613 12.3864L11.9644 12.3844L11.8584 12.2148ZM12.9043 12.3643L12.7705 12.5129L12.7733 12.5154L12.9043 12.3643ZM13.168 17.04H12.9679L12.9681 17.0463L13.168 17.04ZM13.2119 17.5586L13.0139 17.5879L13.0153 17.595L13.2119 17.5586ZM13.6162 18.2266L13.5159 18.3998L13.5231 18.4035L13.6162 18.2266ZM14.4688 18.2178L14.569 18.3909L14.5716 18.3893L14.4688 18.2178ZM14.8994 17.5322L15.0958 17.57L15.0961 17.5686L14.8994 17.5322ZM15.0137 12.2148L15.1118 12.3893L15.1197 12.3844L15.0137 12.2148ZM16.0508 12.3643L15.9144 12.5107L15.9198 12.5154L16.0508 12.3643ZM16.2266 17.9014L16.0304 17.8621L16.0299 17.8652L16.2266 17.9014ZM15.9102 18.6924L16.0759 18.8043L16.0772 18.8024L15.9102 18.6924ZM13.1064 19.2373L13.2073 19.0645L13.2017 19.0614L13.1064 19.2373ZM12.7373 18.9736L12.5958 19.1151L12.6 19.119L12.7373 18.9736ZM12.4824 18.6396L12.6577 18.5433L12.474 18.2093L12.3035 18.5502L12.4824 18.6396ZM12.2188 18.9736L12.3521 19.1227L12.3525 19.1223L12.2188 18.9736ZM11.832 19.2373L11.7397 19.0598L11.7343 19.0628L11.832 19.2373ZM9.98633 19.3867L9.92451 19.5769L9.92588 19.5774L9.98633 19.3867ZM9.38867 19.0703L9.51565 18.9157L9.51224 18.913L9.38867 19.0703ZM8.99316 18.6221L8.81799 18.7187L8.82062 18.7232L8.99316 18.6221ZM8.66797 17.541L8.46826 17.5535L8.46884 17.5597L8.66797 17.541ZM8.60645 12.6367L8.41484 12.6957L8.41978 12.7085L8.60645 12.6367ZM8.71191 12.2148L8.81007 12.3893L8.81791 12.3844L8.71191 12.2148ZM9.74902 12.3643L9.61265 12.5107L9.61804 12.5154L9.74902 12.3643ZM10.0391 17.5146L9.84011 17.5368L9.84139 17.5451L10.0391 17.5146ZM10.1621 17.9189L9.98309 18.0085L9.98687 18.0153L10.1621 17.9189ZM10.4346 18.209L10.3255 18.3768L10.3317 18.3805L10.4346 18.209ZM11.3223 18.2178L11.4225 18.3909L11.4252 18.3893L11.3223 18.2178ZM11.7529 17.5322L11.9493 17.57L11.9496 17.5686L11.7529 17.5322ZM11.9969 13.0059C11.9969 12.8333 11.9857 12.6846 11.9529 12.5779L11.5706 12.6955C11.5846 12.7412 11.5969 12.8386 11.5969 13.0059H11.9969ZM11.9529 12.5779C11.934 12.5165 11.9266 12.4662 11.9266 12.4258H11.5266C11.5266 12.5142 11.5426 12.6046 11.5706 12.6955L11.9529 12.5779ZM11.9266 12.4258C11.9266 12.4206 11.9272 12.4178 11.9275 12.4167C11.9278 12.4156 11.9282 12.4146 11.9291 12.4131C11.9309 12.4104 11.9382 12.4002 11.9613 12.3863L11.7555 12.0433C11.6192 12.1251 11.5266 12.2548 11.5266 12.4258H11.9266ZM11.9644 12.3844C12.0214 12.3488 12.0946 12.327 12.1924 12.327V11.927C12.0323 11.927 11.8829 11.9637 11.7524 12.0452L11.9644 12.3844ZM12.1924 12.327C12.4553 12.327 12.6404 12.3958 12.7705 12.5129L13.0381 12.2156C12.8167 12.0163 12.5271 11.927 12.1924 11.927V12.327ZM12.7733 12.5154C12.9089 12.6329 12.968 12.7638 12.968 12.918H13.368C13.368 12.6385 13.2513 12.4003 13.0353 12.2131L12.7733 12.5154ZM12.968 12.918V17.04H13.368V12.918H12.968ZM12.9681 17.0463C12.9741 17.2402 12.9893 17.4209 13.0141 17.5879L13.4098 17.5293C13.3876 17.3799 13.3735 17.2149 13.3679 17.0338L12.9681 17.0463ZM13.0153 17.595C13.0477 17.7703 13.1011 17.9278 13.1795 18.0631L13.5256 17.8627C13.4751 17.7754 13.4347 17.6633 13.4086 17.5222L13.0153 17.595ZM13.1795 18.0631C13.2614 18.2047 13.3744 18.3177 13.516 18.3996L13.7164 18.0535C13.6353 18.0065 13.5726 17.9438 13.5256 17.8627L13.1795 18.0631ZM13.5231 18.4035C13.6722 18.4821 13.8508 18.5145 14.0469 18.5145V18.1145C13.8914 18.1145 13.7828 18.0883 13.7094 18.0496L13.5231 18.4035ZM14.0469 18.5145C14.241 18.5145 14.4189 18.4777 14.569 18.3909L14.3685 18.0447C14.2959 18.0867 14.1926 18.1145 14.0469 18.1145V18.5145ZM14.5716 18.3893C14.717 18.3021 14.8343 18.1848 14.9215 18.0394L14.5785 17.8336C14.5251 17.9227 14.4549 17.9929 14.3659 18.0463L14.5716 18.3893ZM14.9215 18.0394C15.0054 17.8996 15.0627 17.7423 15.0958 17.57L14.703 17.4945C14.6775 17.6269 14.6353 17.739 14.5785 17.8336L14.9215 18.0394ZM15.0961 17.5686C15.1277 17.3978 15.1434 17.2215 15.1434 17.04H14.7434C14.7434 17.1984 14.7297 17.3503 14.7028 17.4958L15.0961 17.5686ZM15.1434 17.04V13.0059H14.7434V17.04H15.1434ZM15.1434 13.0059C15.1434 12.8333 15.1322 12.6846 15.0994 12.5779L14.717 12.6955C14.7311 12.7412 14.7434 12.8386 14.7434 13.0059H15.1434ZM15.0994 12.5779C15.0805 12.5165 15.073 12.4662 15.073 12.4258H14.673C14.673 12.5142 14.6891 12.6046 14.717 12.6955L15.0994 12.5779ZM15.073 12.4258C15.073 12.4218 15.0735 12.4201 15.0736 12.42C15.0736 12.4199 15.0737 12.4194 15.0746 12.4181C15.0765 12.4153 15.085 12.4042 15.1117 12.3892L14.9156 12.0405C14.7755 12.1193 14.673 12.2484 14.673 12.4258H15.073ZM15.1197 12.3844C15.1767 12.3488 15.2499 12.327 15.3477 12.327V11.927C15.1876 11.927 15.0382 11.9637 14.9077 12.0452L15.1197 12.3844ZM15.3477 12.327C15.6109 12.327 15.7913 12.3959 15.9145 12.5106L16.1871 12.2179C15.9704 12.0162 15.682 11.927 15.3477 11.927V12.327ZM15.9198 12.5154C16.0554 12.6329 16.1145 12.7638 16.1145 12.918H16.5145C16.5145 12.6385 16.3978 12.4003 16.1818 12.2131L15.9198 12.5154ZM16.1145 12.918V17.04H16.5145V12.918H16.1145ZM16.1145 17.04C16.1145 17.3073 16.0866 17.5813 16.0304 17.8621L16.4227 17.9406C16.4837 17.6355 16.5145 17.3352 16.5145 17.04H16.1145ZM16.0299 17.8652C15.9819 18.1264 15.8864 18.3649 15.7431 18.5824L16.0772 18.8024C16.2504 18.5394 16.3658 18.2506 16.4233 17.9375L16.0299 17.8652ZM15.7444 18.5805C15.6071 18.7839 15.411 18.9565 15.1484 19.0958L15.3359 19.4491C15.6476 19.2837 15.8968 19.0696 16.0759 18.8043L15.7444 18.5805ZM15.1484 19.0958C14.8998 19.2277 14.5604 19.301 14.1172 19.301V19.701C14.5998 19.701 15.0103 19.6219 15.3359 19.4491L15.1484 19.0958ZM14.1172 19.301C13.9401 19.301 13.7765 19.2795 13.6255 19.2379L13.5191 19.6235C13.7079 19.6756 13.9076 19.701 14.1172 19.701V19.301ZM13.6255 19.2379C13.4708 19.1952 13.3317 19.1372 13.2072 19.0645L13.0057 19.4101C13.1624 19.5015 13.3339 19.5724 13.5191 19.6235L13.6255 19.2379ZM13.2017 19.0614C13.0748 18.9927 12.9662 18.9148 12.8746 18.8282L12.6 19.119C12.7193 19.2317 12.8568 19.3295 13.0112 19.4132L13.2017 19.0614ZM12.8787 18.8322C12.7851 18.7386 12.712 18.6421 12.6577 18.5433L12.3072 18.736C12.3817 18.8715 12.4786 18.9978 12.5959 19.1151L12.8787 18.8322ZM12.3035 18.5502C12.2582 18.641 12.1872 18.7329 12.085 18.825L12.3525 19.1223C12.4846 19.0034 12.5895 18.8727 12.6613 18.7291L12.3035 18.5502ZM12.0854 18.8246C11.9877 18.9119 11.873 18.9906 11.7398 19.0599L11.9243 19.4147C12.0841 19.3317 12.2271 19.2345 12.3521 19.1227L12.0854 18.8246ZM11.7343 19.0628C11.6026 19.1366 11.4594 19.1951 11.3042 19.2379L11.4106 19.6235C11.5953 19.5725 11.7685 19.5021 11.9298 19.4118L11.7343 19.0628ZM11.3042 19.2379C11.151 19.2801 10.9989 19.301 10.8477 19.301V19.701C11.0362 19.701 11.224 19.6749 11.4106 19.6235L11.3042 19.2379ZM10.8477 19.301C10.5279 19.301 10.2623 19.2644 10.0468 19.1961L9.92588 19.5774C10.1908 19.6614 10.4994 19.701 10.8477 19.701V19.301ZM10.0481 19.1965C9.83375 19.1268 9.65755 19.0324 9.51562 18.9158L9.26172 19.2249C9.44792 19.3778 9.67015 19.4943 9.92451 19.5769L10.0481 19.1965ZM9.51224 18.913C9.36669 18.7987 9.25191 18.668 9.1657 18.5209L8.82062 18.7232C8.93364 18.916 9.08253 19.0841 9.26511 19.2276L9.51224 18.913ZM9.16828 18.5255C9.08149 18.3681 9.01401 18.206 8.96551 18.039L8.58137 18.1505C8.63833 18.3467 8.71734 18.5362 8.81805 18.7187L9.16828 18.5255ZM8.96551 18.039C8.91627 17.8694 8.88349 17.6972 8.8671 17.5223L8.46884 17.5597C8.4876 17.7598 8.52513 17.9568 8.58137 18.1505L8.96551 18.039ZM8.86758 17.5285C8.85607 17.3444 8.85039 17.1758 8.85039 17.0225H8.45039C8.45039 17.1855 8.45643 17.3626 8.46836 17.5535L8.86758 17.5285ZM8.85039 17.0225V13.0059H8.45039V17.0225H8.85039ZM8.85039 13.0059C8.85039 12.8321 8.83645 12.6776 8.79311 12.5649L8.41978 12.7085C8.43504 12.7482 8.45039 12.8397 8.45039 13.0059H8.85039ZM8.7976 12.5779C8.7787 12.5165 8.77129 12.4662 8.77129 12.4258H8.37129C8.37129 12.5142 8.38732 12.6046 8.41529 12.6955L8.7976 12.5779ZM8.77129 12.4258C8.77129 12.4218 8.77179 12.4201 8.77184 12.42C8.77187 12.4199 8.77198 12.4194 8.77286 12.4181C8.7747 12.4153 8.78327 12.4042 8.80997 12.3892L8.61386 12.0405C8.47375 12.1193 8.37129 12.2484 8.37129 12.4258H8.77129ZM8.81791 12.3844C8.87491 12.3488 8.94815 12.327 9.0459 12.327V11.927C8.88584 11.927 8.73642 11.9637 8.60591 12.0452L8.81791 12.3844ZM9.0459 12.327C9.30918 12.327 9.48953 12.3959 9.61274 12.5106L9.88531 12.2179C9.66867 12.0162 9.38028 11.927 9.0459 11.927V12.327ZM9.61804 12.5154C9.75361 12.6329 9.8127 12.7638 9.8127 12.918H10.2127C10.2127 12.6385 10.096 12.4003 9.88001 12.2131L9.61804 12.5154ZM9.8127 12.918V17.04H10.2127V12.918H9.8127ZM9.8127 17.04C9.8127 17.2057 9.8219 17.3712 9.84029 17.5367L10.2378 17.4926C10.2211 17.3416 10.2127 17.1908 10.2127 17.04H9.8127ZM9.84139 17.5451C9.86744 17.7144 9.91387 17.8697 9.98322 18.0084L10.341 17.8295C10.2932 17.7338 10.2576 17.6196 10.2367 17.4842L9.84139 17.5451ZM9.98687 18.0153C10.0679 18.1627 10.1821 18.2834 10.3256 18.3767L10.5436 18.0413C10.4527 17.9822 10.3852 17.9096 10.3374 17.8226L9.98687 18.0153ZM10.3317 18.3805C10.4903 18.4756 10.6851 18.5145 10.9004 18.5145V18.1145C10.729 18.1145 10.6133 18.083 10.5375 18.0375L10.3317 18.3805ZM10.9004 18.5145C11.0945 18.5145 11.2724 18.4777 11.4225 18.3909L11.2221 18.0447C11.1494 18.0867 11.0461 18.1145 10.9004 18.1145V18.5145ZM11.4252 18.3893C11.5705 18.3021 11.6878 18.1848 11.775 18.0394L11.432 17.8336C11.3786 17.9227 11.3084 17.9929 11.2194 18.0463L11.4252 18.3893ZM11.775 18.0394C11.8589 17.8996 11.9162 17.7423 11.9493 17.57L11.5565 17.4945C11.5311 17.6269 11.4888 17.739 11.432 17.8336L11.775 18.0394ZM11.9496 17.5686C11.9812 17.3978 11.9969 17.2215 11.9969 17.04H11.5969C11.5969 17.1984 11.5832 17.3503 11.5563 17.4958L11.9496 17.5686ZM11.9969 17.04V13.0059H11.5969V17.04H11.9969Z" fill="black" mask="url(#path-3-outside-1_6624_247)"/>
</g>
<defs>
<clipPath id="clip0_6624_247">
<rect width="25" height="24" fill="white"/>
</clipPath>
</defs>
</svg>
