<svg width="24" height="24" viewBox="0 0 24 24" fill="none" xmlns="http://www.w3.org/2000/svg">
<g clip-path="url(#clip0_6333_51)">
<path d="M22.875 19.1625L17.5125 13.7625C17.2125 13.4625 16.8375 13.3125 16.3875 13.3125C15.975 13.3125 15.5625 13.4625 15.2625 13.7625L15.1125 13.9125L14.0625 12.8625C16.425 9.89998 16.2375 5.54998 13.5 2.81248C12.075 1.38748 10.2 0.599976 8.175 0.599976C6.15 0.599976 4.275 1.38748 2.85 2.81248C-0.0749999 5.73748 -0.0749999 10.5375 2.85 13.4625C4.275 14.8875 6.15 15.675 8.175 15.675C9.9 15.675 11.55 15.075 12.8625 14.025L13.9125 15.075L13.7625 15.225C13.1625 15.825 13.1625 16.8375 13.7625 17.4375L19.1625 22.8375C19.4625 23.1375 19.8375 23.2875 20.2875 23.2875C20.7 23.2875 21.1125 23.1375 21.4125 22.8375L22.9125 21.3375C23.5125 20.775 23.5125 19.7625 22.875 19.1625ZM8.175 14.025C6.6 14.025 5.1375 13.425 4.05 12.3C1.7625 10.0125 1.7625 6.29998 4.05 4.01248C5.1375 2.92498 6.6375 2.28748 8.175 2.28748C9.75 2.28748 11.2125 2.88748 12.3 4.01248C14.5875 6.29998 14.5875 10.0125 12.3 12.3C11.2125 13.425 9.75 14.025 8.175 14.025ZM20.25 21.6375L15.0375 16.3875L16.3875 15.0375L21.6 20.25L20.25 21.6375Z" fill="#5A5959"/>
<path d="M10.0874 7.35H9.0374V6.3C9.0374 5.85 8.6624 5.4375 8.1749 5.4375C7.6874 5.4375 7.3124 5.8125 7.3124 6.3V7.35H6.2624C5.8124 7.35 5.3999 7.725 5.3999 8.2125C5.3999 8.7 5.7749 9.075 6.2624 9.075H7.3124V10.125C7.3124 10.575 7.6874 10.9875 8.1749 10.9875C8.6624 10.9875 9.0374 10.6125 9.0374 10.125V9.075H10.0874C10.5374 9.075 10.9499 8.7 10.9499 8.2125C10.9499 7.725 10.5749 7.35 10.0874 7.35Z" fill="#5A5959"/>
</g>
<defs>
<clipPath id="clip0_6333_51">
<rect width="24" height="24" fill="white"/>
</clipPath>
</defs>
</svg>
