<svg width="24" height="24" viewBox="0 0 24 24" fill="none" xmlns="http://www.w3.org/2000/svg">
<g clip-path="url(#clip0_6333_56)">
<path d="M22.8748 19.125L17.5123 13.7625C16.9123 13.1625 15.8998 13.1625 15.2998 13.7625L15.1498 13.9125L14.0998 12.8625C15.1498 11.55 15.7498 9.9 15.7498 8.175C15.7498 6.15 14.9623 4.275 13.5373 2.85C10.6123 -0.0749999 5.8123 -0.0749999 2.8873 2.85C1.4623 4.275 0.674805 6.15 0.674805 8.175C0.674805 10.2 1.4623 12.075 2.8873 13.5C4.3498 14.9625 6.2998 15.7125 8.21231 15.7125C9.8623 15.7125 11.5498 15.15 12.8998 14.0625L13.9498 15.1125L13.7998 15.2625C13.4998 15.5625 13.3498 15.9375 13.3498 16.3875C13.3498 16.8 13.4998 17.2125 13.7998 17.5125L19.1623 22.875C19.4623 23.175 19.8748 23.325 20.2873 23.325C20.6998 23.325 21.0748 23.175 21.4123 22.875L22.9123 21.375C23.2123 21.075 23.3623 20.7 23.3623 20.25C23.3623 19.8375 23.1748 19.425 22.8748 19.125ZM4.0498 12.3375C2.9623 11.25 2.3248 9.7875 2.3248 8.2125C2.3248 6.6375 2.9248 5.175 4.0498 4.0875C5.1748 2.9625 6.6748 2.3625 8.1748 2.3625C9.6748 2.3625 11.1748 2.925 12.2998 4.0875C13.3873 5.175 14.0248 6.6375 14.0248 8.2125C14.0248 9.7875 13.4248 11.25 12.2998 12.3375C10.0498 14.5875 6.3373 14.5875 4.0498 12.3375ZM20.2498 21.6L15.0373 16.3875L16.3873 15.0375L21.5998 20.25L20.2498 21.6Z" fill="#5A5959"/>
<path d="M10.0874 7.34998H6.2624C5.8124 7.34998 5.3999 7.72498 5.3999 8.21248C5.3999 8.69998 5.7749 9.07498 6.2624 9.07498H10.0874C10.5374 9.07498 10.9499 8.69998 10.9499 8.21248C10.9499 7.72498 10.5749 7.34998 10.0874 7.34998Z" fill="#5A5959"/>
</g>
<defs>
<clipPath id="clip0_6333_56">
<rect width="24" height="24" fill="white"/>
</clipPath>
</defs>
</svg>
