<svg width="9" height="11" viewBox="0 0 9 11" fill="none" xmlns="http://www.w3.org/2000/svg">
<path d="M0.162219 10.4337H1.58348C1.65371 10.4337 1.71725 10.3886 1.73899 10.32L2.63689 7.5444H6.30208L7.19162 10.32C7.21336 10.3869 7.27523 10.4337 7.34712 10.4337H8.83694C8.85534 10.4337 8.87373 10.4304 8.89045 10.4254C8.9107 10.4184 8.92938 10.4075 8.9454 10.3933C8.96143 10.3791 8.97448 10.3619 8.98381 10.3426C8.99313 10.3233 8.99855 10.3024 8.99975 10.281C9.00094 10.2596 8.99789 10.2382 8.99077 10.218L5.51119 0.110357C5.4999 0.07844 5.47911 0.0507489 5.4516 0.0310164C5.4241 0.0112839 5.3912 0.000458644 5.35736 0H3.64682C3.5766 0 3.51473 0.0434739 3.49299 0.110357L0.00838851 10.218C0.00170021 10.2348 2.79486e-05 10.2532 2.79486e-05 10.2716C-0.00164413 10.3602 0.0719273 10.4337 0.162219 10.4337ZM4.44106 1.80417H4.50961L5.91081 6.2151H3.02481L4.44106 1.80417Z" fill="#333333" stroke="#333333" stroke-width="0.001"/>
</svg>
