<svg width="10" height="10" viewBox="0 0 10 10" fill="none" xmlns="http://www.w3.org/2000/svg">
<g clip-path="url(#clip0_6464_1026)">
<path d="M9.375 1.59375L8.54688 0.765625C8.07812 0.296875 7.32812 0.296875 6.85938 0.765625L2.14062 5.48437C1.98438 5.64062 1.98438 5.90625 2.14062 6.07812L2.1875 6.125L1.42188 6.875C1.28125 7.01562 1.20312 7.20312 1.1875 7.375L0.421875 8.14062C0.3125 8.25 0.265625 8.40625 0.28125 8.54688C0.296875 8.6875 0.390625 8.82812 0.53125 8.89062L1.6875 9.51562C1.76562 9.5625 1.84375 9.57812 1.92188 9.57812C2.04688 9.57812 2.1875 9.53125 2.28125 9.42188L2.76562 8.9375C2.9375 8.92188 3.125 8.84375 3.25 8.70312L4.01562 7.9375L4.04688 7.96875C4.125 8.04688 4.23438 8.09375 4.34375 8.09375C4.45312 8.09375 4.5625 8.04688 4.64062 7.96875L9.375 3.26562C9.59375 3.04688 9.71875 2.75 9.71875 2.42188C9.71875 2.10938 9.60938 1.8125 9.375 1.59375ZM1.875 8.84375L1.125 8.4375L1.46875 8.09375L2.04688 8.67188L1.875 8.84375ZM3.51562 7.46875L2.75 8.23438C2.70312 8.28125 2.625 8.28125 2.57812 8.23438L1.90625 7.5625C1.875 7.51562 1.875 7.48437 1.875 7.46875C1.875 7.45312 1.875 7.40625 1.90625 7.375L2.67188 6.60937L3.09375 7.03125L3.51562 7.46875ZM8.875 2.76563L4.34375 7.29688L3.59375 6.54688L2.82812 5.78125L7.35938 1.25C7.54688 1.0625 7.85938 1.0625 8.04688 1.25L8.875 2.07812C9.07812 2.28125 9.07812 2.57813 8.875 2.76563Z" fill="#333333"/>
</g>
<defs>
<clipPath id="clip0_6464_1026">
<rect width="10" height="10" fill="white"/>
</clipPath>
</defs>
</svg>
