<svg width="10" height="7" viewBox="0 0 10 7" fill="none" xmlns="http://www.w3.org/2000/svg">
<path d="M1.83994 1.09326H8.83994C8.98994 1.09326 9.12744 0.937012 9.12744 0.733887C9.12744 0.530762 9.00244 0.374512 8.83994 0.374512H1.83994C1.68994 0.374512 1.55244 0.530762 1.55244 0.733887C1.55244 0.937012 1.68994 1.09326 1.83994 1.09326Z" fill="#333333"/>
<path d="M8.83994 3.03076H1.83994C1.68994 3.03076 1.55244 3.18701 1.55244 3.39014C1.55244 3.59326 1.67744 3.74951 1.83994 3.74951H8.83994C8.98994 3.74951 9.12744 3.59326 9.12744 3.39014C9.12744 3.18701 8.98994 3.03076 8.83994 3.03076Z" fill="#333333"/>
<path d="M8.83994 5.67139H1.83994C1.68994 5.67139 1.55244 5.82764 1.55244 6.03076C1.55244 6.23389 1.67744 6.39014 1.83994 6.39014H8.83994C8.98994 6.39014 9.12744 6.23389 9.12744 6.03076C9.12744 5.82764 8.98994 5.67139 8.83994 5.67139Z" fill="#333333"/>
<path d="M0.873935 -3.44147e-05V1.45451H0.523082V0.328091H0.51456L0.189276 0.526954V0.222977L0.54794 -3.44147e-05H0.873935Z" fill="#333333"/>
<path d="M0.0637873 4.12678V3.87393L0.594327 3.40945C0.6341 3.37346 0.667954 3.34055 0.69589 3.31072C0.723825 3.28042 0.745132 3.25012 0.75981 3.21982C0.774488 3.18904 0.781827 3.15566 0.781827 3.11967C0.781827 3.07943 0.773068 3.0451 0.755549 3.01669C0.73803 2.98781 0.713882 2.96555 0.683105 2.94993C0.652329 2.9343 0.617054 2.92649 0.577282 2.92649C0.537035 2.92649 0.501761 2.93478 0.471458 2.95135C0.441155 2.96745 0.41748 2.99089 0.400435 3.02166C0.383863 3.05244 0.375577 3.08984 0.375577 3.13388H0.0424805C0.0424805 3.03492 0.0647343 2.94946 0.109242 2.87749C0.153749 2.80552 0.216249 2.75012 0.296742 2.71129C0.377708 2.67199 0.471694 2.65234 0.578702 2.65234C0.689024 2.65234 0.784905 2.67081 0.866344 2.70774C0.947784 2.74467 1.01076 2.79628 1.05526 2.86257C1.10025 2.92839 1.12274 3.00485 1.12274 3.09197C1.12274 3.14737 1.11161 3.2023 1.08936 3.25675C1.0671 3.3112 1.02709 3.37133 0.969327 3.43714C0.912035 3.50296 0.830596 3.58179 0.725009 3.67365L0.551003 3.83416V3.84339H1.14049V4.12678H0.0637873Z" fill="#333333"/>
<path d="M0.571733 6.66326C0.460937 6.66326 0.362689 6.64432 0.276989 6.60645C0.191761 6.56809 0.124527 6.5153 0.0752841 6.44806C0.0260417 6.38083 0.000946969 6.30342 0 6.21582H0.353693C0.355114 6.24754 0.365294 6.27572 0.384233 6.30034C0.403172 6.32449 0.428977 6.34342 0.461648 6.35716C0.494318 6.37089 0.531487 6.37775 0.573153 6.37775C0.61482 6.37775 0.651515 6.37041 0.683239 6.35574C0.715436 6.34058 0.74053 6.31999 0.758523 6.29395C0.776515 6.26743 0.785275 6.23713 0.784801 6.20304C0.785275 6.16895 0.775568 6.13864 0.755682 6.11213C0.735795 6.08561 0.707623 6.06502 0.671165 6.05034C0.63518 6.03566 0.592566 6.02832 0.543324 6.02832H0.401989V5.77832H0.543324C0.586411 5.77832 0.62429 5.77122 0.65696 5.75701C0.690104 5.74281 0.715909 5.72292 0.734375 5.69735C0.752841 5.67131 0.761837 5.64148 0.761364 5.60787C0.761837 5.5752 0.754025 5.54655 0.737926 5.52193C0.722301 5.49683 0.700284 5.47742 0.671875 5.46369C0.643939 5.44996 0.611506 5.44309 0.574574 5.44309C0.535748 5.44309 0.500473 5.44996 0.46875 5.46369C0.4375 5.47742 0.412642 5.49683 0.394176 5.52193C0.37571 5.54702 0.366004 5.57614 0.365057 5.60929H0.0291193C0.0300663 5.52264 0.054214 5.44641 0.101563 5.38059C0.148911 5.31431 0.213305 5.26246 0.294744 5.22505C0.376657 5.18765 0.469934 5.16895 0.574574 5.16895C0.678741 5.16895 0.77036 5.18717 0.849432 5.22363C0.928504 5.26009 0.990057 5.30981 1.03409 5.37278C1.07813 5.43528 1.10014 5.50607 1.10014 5.58514C1.10062 5.66705 1.07386 5.73452 1.01989 5.78755C0.966383 5.84058 0.897491 5.87325 0.81321 5.88556V5.89693C0.9259 5.91019 1.01089 5.94664 1.06818 6.0063C1.12595 6.06596 1.15459 6.14054 1.15412 6.23002C1.15412 6.31431 1.12926 6.38912 1.07955 6.45446C1.0303 6.51932 0.961648 6.57046 0.87358 6.60787C0.785985 6.6448 0.685369 6.66326 0.571733 6.66326Z" fill="#333333"/>
</svg>
