<svg width="8" height="15" viewBox="0 0 8 15" fill="none" xmlns="http://www.w3.org/2000/svg">
<line y1="13.5" x2="8" y2="13.5" stroke="#333333"/>
<path d="M5.65341 3.72727H6.53409V8.54261C6.53409 9.03977 6.4169 9.48366 6.18253 9.87429C5.95052 10.2625 5.62263 10.5691 5.19886 10.794C4.77509 11.0166 4.27794 11.1278 3.70739 11.1278C3.13684 11.1278 2.63968 11.0166 2.21591 10.794C1.79214 10.5691 1.46307 10.2625 1.22869 9.87429C0.996686 9.48366 0.880682 9.03977 0.880682 8.54261V3.72727H1.76136V8.47159C1.76136 8.8267 1.83949 9.14276 1.99574 9.41974C2.15199 9.69437 2.37453 9.91098 2.66335 10.0696C2.95455 10.2259 3.30256 10.304 3.70739 10.304C4.11222 10.304 4.46023 10.2259 4.75142 10.0696C5.04261 9.91098 5.26515 9.69437 5.41903 9.41974C5.57528 9.14276 5.65341 8.8267 5.65341 8.47159V3.72727Z" fill="#333333"/>
</svg>
