<?xml version="1.0" encoding="utf-8"?>
<!-- Generator: Adobe Illustrator 28.2.0, SVG Export Plug-In . SVG Version: 6.00 Build 0)  -->
<svg version="1.1" id="Layer_1" xmlns="http://www.w3.org/2000/svg" xmlns:xlink="http://www.w3.org/1999/xlink" x="0px" y="0px"
	 viewBox="0 0 772 676" style="enable-background:new 0 0 772 676;" xml:space="preserve">
<style type="text/css">
	.st0{fill:#FFBFBC;fill-opacity:0.52;}
	.st1{fill:#FFE2CC;}
	.st2{fill:url(#SVGID_1_);}
</style>
<path class="st0" d="M425.6,584.9C342.2,544.4,79.4,756,10.4,485.7c-32.9-128.8,165.4-232.1,294.3-358.4
	C392.2-2.5,524.6-18.5,610.6,39.2c86.2,57.2,171.5,224,147.3,446.5C732.2,602.3,576.8,658.3,425.6,584.9z"/>
<path class="st1" d="M516.7,327.4c15.8,57.7,136.2,131.7,125.5,218.2c-8.8,70.5-46.6,86.5-94.4,108.1
	c-46.4,31.3-107.8-0.6-175.8-28.2c-51.3-20.9-134.2-11.6-200.2-55.6c-64.1-42.8-66.4-113.5-55.3-171.1
	c19.6-56.8,62.8-126.7,106.3-162.6c44.2-35.4,87.2-54.6,149.2-62.9c61.7-7.7,124.5-12.9,186.3,9.6
	C619.6,204.4,500.5,270.3,516.7,327.4z"/>
<linearGradient id="SVGID_1_" gradientUnits="userSpaceOnUse" x1="452.3738" y1="1083.96" x2="419.6068" y2="626.0844" gradientTransform="matrix(1 0 0 -1 0 686)">
	<stop  offset="0" style="stop-color:#FFA866"/>
	<stop  offset="1" style="stop-color:#FFA866"/>
</linearGradient>
<path class="st2" d="M155,479.3c-34.7-33.4-87.5-104.8-100-169.2c-12.5-64.4-12.1-111.8,15-151.3c33-48.1,68-61.7,130.8-75.9
	C277,65.7,370.4,70.4,424,77.3c99,12.7,270.3,27.6,319.8,118c25.7,46.8,26.1,97.5,6.1,145.2c-22.3,68.4-110,154.4-152,177.2
	c-52.3,28.4-113.5,62.2-248,43.6C284.9,552.3,201.4,523.9,155,479.3z"/>
</svg>
