<?xml version="1.0" encoding="utf-8"?>
<!-- Generator: Adobe Illustrator 28.2.0, SVG Export Plug-In . SVG Version: 6.00 Build 0)  -->
<svg version="1.1" id="Layer_1" xmlns="http://www.w3.org/2000/svg" xmlns:xlink="http://www.w3.org/1999/xlink" x="0px" y="0px"
	 viewBox="0 0 693 650" style="enable-background:new 0 0 693 650;" xml:space="preserve">
<style type="text/css">
	.st0{clip-path:url(#SVGID_00000147179071797246980250000005834105215978348470_);}
	.st1{fill:#FFE2CC;}
	.st2{fill:#FFBFBC;fill-opacity:0.52;}
	.st3{fill:url(#SVGID_00000007405094128528633580000004160246665511182762_);}
</style>
<g>
	<defs>
		<rect id="SVGID_1_" y="-76" width="743" height="726"/>
	</defs>
	<clipPath id="SVGID_00000013192708432536707080000007962062978991097513_">
		<use xlink:href="#SVGID_1_"  style="overflow:visible;"/>
	</clipPath>
	<g style="clip-path:url(#SVGID_00000013192708432536707080000007962062978991097513_);">
		<path class="st1" d="M598.5,414.6c-49.1,46.2-100.7,76.1-164.3,111.8c-62.8,35.6-137.7,76.2-209.8,73.2
			C153.2,596.5,83.2,550,53.2,490.3c-30-59.7-20.8-133-3.3-202.4c18.1-70.2,44.1-137.7,98-184.8C201.7,56,282.7,29.5,353.7,35.5
			c72,6.5,134,45.5,196.4,86.5c62.4,41,125.2,84,133.8,135.2C691.8,309.3,647,369.3,598.5,414.6z"/>
		<path class="st2" d="M395.3,641.1C283.7,652,155.6,533.8,131,412.2c-24.1-121.5,54.8-246.8,154.5-324.3
			C385.3,10.3,506-20,578.2,32.1c72.4,51.6,97.1,184.8,61.1,321.6C603.8,490.6,507.4,629.9,395.3,641.1z"/>
		
			<linearGradient id="SVGID_00000057144445632443885520000005241235968533942656_" gradientUnits="userSpaceOnUse" x1="580.1731" y1="569.5499" x2="-20.8156" y2="-39.7132" gradientTransform="matrix(1 0 0 -1 0 576)">
			<stop  offset="0" style="stop-color:#FFA866"/>
			<stop  offset="1" style="stop-color:#FFA866"/>
		</linearGradient>
		<path style="fill:url(#SVGID_00000057144445632443885520000005241235968533942656_);" d="M141.6,543.9
			c-40.7-51.5-63.4-102.6-90-165.4c-26.6-62-56.4-135.8-39.4-200c17-63.4,80.9-118.8,151.4-136c70.5-17.3,148.3,2.8,220.3,29.7
			c72.7,27.5,141,61.7,181.8,117.7c40.8,55.9,54.1,132.9,34,195.6c-20.8,63.5-75,112.8-131.4,162.2C411.9,597,353.3,646.4,296,645.8
			C238.1,644.5,181.5,594.7,141.6,543.9z"/>
	</g>
</g>
</svg>
