<?xml version="1.0" encoding="utf-8"?>
<!-- Generator: Adobe Illustrator 28.2.0, SVG Export Plug-In . SVG Version: 6.00 Build 0)  -->
<svg version="1.1" id="Layer_1" xmlns="http://www.w3.org/2000/svg" xmlns:xlink="http://www.w3.org/1999/xlink" x="0px" y="0px"
	 viewBox="0 0 780 642.6" style="enable-background:new 0 0 780 642.6;" xml:space="preserve">
<style type="text/css">
	.st0{clip-path:url(#SVGID_00000019680352241843639720000018236661546371420059_);}
	.st1{fill:#FFBFBC;fill-opacity:0.52;}
	.st2{fill:#FFE2CC;}
	.st3{fill:url(#SVGID_00000065045695521343520870000017561662606253886083_);}
</style>
<g>
	<defs>
		<rect id="SVGID_1_" x="-37" y="-103.9" width="816.4" height="823.4"/>
	</defs>
	<clipPath id="SVGID_00000134937774299271829500000016400681968912418459_">
		<use xlink:href="#SVGID_1_"  style="overflow:visible;"/>
	</clipPath>
	<g style="clip-path:url(#SVGID_00000134937774299271829500000016400681968912418459_);">
		<path class="st1" d="M280.8,624.3C160.2,636.9,37.7,579.7,11.6,443.6C-14,307.7,172.3,193,280.5,105.8
			C388.6,18.6,519.2-15.8,597.1,42.2c78,57.4,72,90.4,32.6,243.6C590.7,439.1,402.1,611.3,280.8,624.3z"/>
		<path class="st2" d="M664.3,165.8c52.6,35.2,99,72.7,112.3,133.3s-24.4,156.1-59.8,194c-36.3,38.5-75,122.9-152.4,135.3
			c-78.4,12.4-74.2,11.1-144.9,0c-69.8-11.1-236.9-74.5-276.1-116.9c-39.2-42.4-22-116.8,0-163.2c22.9-46.3,78.4-82.2,136.7-116.8
			c58.3-33.9,119.5-66.5,196.9-78.3C553.5,140.8,611.7,131.2,664.3,165.8z"/>
		
			<linearGradient id="SVGID_00000155143390152345186150000012434081751354328752_" gradientUnits="userSpaceOnUse" x1="398.1773" y1="347.4002" x2="-211.8757" y2="-256.7238" gradientTransform="matrix(1 0 0 -1 0 617.1348)">
			<stop  offset="0" style="stop-color:#FFA866"/>
			<stop  offset="1" style="stop-color:#FFA866"/>
		</linearGradient>
		<path style="fill:url(#SVGID_00000155143390152345186150000012434081751354328752_);" d="M236.2,489.2
			C182.6,458.4,84,388.2,54.2,329.3c-29.7-59-31.8-90.5-14.9-155.7C54.2,116,127.6,27.9,206.4,14.5c72.4-12.3,145.7-2.2,217.1,25
			c72.1,27.9,136,92.8,176.5,149.5s80.4,163.5,82.4,224.1c2.5,75.5-33.7,98-82.4,141.6c-55.9,50.1-120.4,48.7-165.1,34.5
			C377.9,571.1,316.1,535.1,236.2,489.2z"/>
	</g>
</g>
</svg>
