<svg width="10" height="10" viewBox="0 0 10 10" fill="none" xmlns="http://www.w3.org/2000/svg">
<g clip-path="url(#clip0_6464_1003)">
<path d="M1.32813 0.984375H8.48438C8.67188 0.984375 8.84375 0.828125 8.84375 0.625C8.84375 0.421875 8.6875 0.265625 8.48438 0.265625H1.32813C1.14063 0.265625 0.96875 0.421875 0.96875 0.625C0.96875 0.828125 1.14063 0.984375 1.32813 0.984375Z" fill="#333333"/>
<path d="M8.48438 9.03125H1.32813C1.14063 9.03125 0.96875 9.1875 0.96875 9.39062C0.96875 9.59375 1.125 9.75 1.32813 9.75H8.48438C8.67188 9.75 8.84375 9.59375 8.84375 9.39062C8.84375 9.1875 8.6875 9.03125 8.48438 9.03125Z" fill="#333333"/>
<path d="M8.84375 4.60928L7.26563 3.26553C7.125 3.14053 6.9375 3.1249 6.78125 3.20303C6.60938 3.28115 6.5 3.45303 6.5 3.65615V6.35928V6.39053C6.51562 6.5624 6.625 6.71865 6.79688 6.78115C6.85938 6.8124 6.92188 6.8124 6.98438 6.8124C7.09375 6.8124 7.1875 6.78115 7.28125 6.70303L8.84375 5.35928C8.95312 5.26553 9.01563 5.14053 9.01563 4.98428C9.01563 4.82803 8.95312 4.6874 8.84375 4.60928ZM7.20312 5.84365V4.14053L8.20313 4.98428L7.20312 5.84365Z" fill="#333333"/>
<path d="M1.32813 3.15625H4.73438C4.92188 3.15625 5.09375 3 5.09375 2.79687C5.09375 2.59375 4.9375 2.4375 4.73438 2.4375H1.32813C1.14063 2.4375 0.96875 2.59375 0.96875 2.79687C0.96875 3 1.14063 3.15625 1.32813 3.15625Z" fill="#333333"/>
<path d="M1.32813 5.35937H4.73438C4.92188 5.35937 5.09375 5.20312 5.09375 5C5.09375 4.8125 4.9375 4.64062 4.73438 4.64062H1.32813C1.14063 4.64062 0.96875 4.79687 0.96875 5C0.984375 5.20312 1.14063 5.35937 1.32813 5.35937Z" fill="#333333"/>
<path d="M1.32813 7.54687H4.73438C4.92188 7.54687 5.09375 7.39062 5.09375 7.1875C5.09375 6.98437 4.9375 6.82812 4.73438 6.82812H1.32813C1.14063 6.82812 0.96875 6.98437 0.96875 7.1875C0.96875 7.39062 1.14063 7.54687 1.32813 7.54687Z" fill="#333333"/>
</g>
<defs>
<clipPath id="clip0_6464_1003">
<rect width="10" height="10" fill="white"/>
</clipPath>
</defs>
</svg>
