<svg width="10" height="10" viewBox="0 0 10 10" fill="none" xmlns="http://www.w3.org/2000/svg">
<path d="M8 0.28125H3.5625C3.375 0.28125 3.20312 0.4375 3.20312 0.640625C3.20312 0.84375 3.35937 1 3.5625 1H5.35938L3.92188 9.04688H2C1.8125 9.04688 1.64062 9.20312 1.64062 9.40625C1.64062 9.60938 1.79688 9.76562 2 9.76562H6.75C6.9375 9.76562 7.10938 9.60938 7.10938 9.40625C7.10938 9.20312 6.95312 9.04688 6.75 9.04688H4.64062L6.07812 1H8C8.1875 1 8.35938 0.84375 8.35938 0.640625C8.35938 0.4375 8.20312 0.28125 8 0.28125Z" fill="#333333"/>
</svg>
