<svg width="10" height="10" viewBox="0 0 10 10" fill="none" xmlns="http://www.w3.org/2000/svg">
<g clip-path="url(#clip0_6464_1010)">
<path d="M9.375 3.0625H5.35937V0.984375H7.625C7.8125 0.984375 7.96875 0.8125 7.96875 0.625C7.96875 0.4375 7.8125 0.265625 7.60937 0.265625H2.375C2.1875 0.28125 2.03125 0.4375 2.03125 0.625C2.03125 0.8125 2.1875 0.984375 2.39062 0.984375H4.65625V3.0625H0.625C0.4375 3.0625 0.265625 3.21875 0.265625 3.42187C0.265625 3.625 0.421875 3.78125 0.625 3.78125H4.65625V9.375C4.65625 9.5625 4.8125 9.73437 5.01562 9.73437C5.20312 9.73437 5.375 9.57812 5.375 9.375V3.76562H9.375C9.5625 3.76562 9.73437 3.60937 9.73437 3.40625C9.73437 3.20312 9.5625 3.0625 9.375 3.0625Z" fill="#333333"/>
</g>
<defs>
<clipPath id="clip0_6464_1010">
<rect width="10" height="10" fill="white"/>
</clipPath>
</defs>
</svg>
