<svg width="10" height="10" viewBox="0 0 10 10" fill="none" xmlns="http://www.w3.org/2000/svg">
<g clip-path="url(#clip0_6464_1007)">
<path d="M0.625 1.39062H9.375C9.5625 1.39062 9.73437 1.23437 9.73437 1.03125C9.73437 0.828125 9.57812 0.671875 9.375 0.671875H0.625C0.4375 0.671875 0.265625 0.828125 0.265625 1.03125C0.265625 1.23437 0.4375 1.39062 0.625 1.39062Z" fill="#111928"/>
<path d="M9.375 3.32812H0.625C0.4375 3.32812 0.265625 3.48438 0.265625 3.6875C0.265625 3.89063 0.421875 4.04688 0.625 4.04688H9.375C9.5625 4.04688 9.73437 3.89063 9.73437 3.6875C9.73437 3.48438 9.5625 3.32812 9.375 3.32812Z" fill="#111928"/>
<path d="M9.375 5.96875H0.625C0.4375 5.96875 0.265625 6.125 0.265625 6.32812C0.265625 6.53125 0.421875 6.6875 0.625 6.6875H9.375C9.5625 6.6875 9.73437 6.53125 9.73437 6.32812C9.73437 6.125 9.5625 5.96875 9.375 5.96875Z" fill="#111928"/>
<path d="M6.64062 8.60938H0.625C0.4375 8.60938 0.265625 8.76563 0.265625 8.96875C0.265625 9.17188 0.421875 9.32813 0.625 9.32813H6.64062C6.82812 9.32813 7 9.17188 7 8.96875C7 8.76563 6.82812 8.60938 6.64062 8.60938Z" fill="#111928"/>
</g>
<defs>
<clipPath id="clip0_6464_1007">
<rect width="10" height="10" fill="white"/>
</clipPath>
</defs>
</svg>
