<svg style="transform: rotate(180deg);" width="987" height="916" viewBox="0 0 987 916" fill="none" xmlns="http://www.w3.org/2000/svg">
  <g clip-path="url(#clip0_6104_1824)">
    <path d="M1228.34 234.053C1344.63 346.4 1437.27 456.776 1490.48 584.891C1543.7 711.035 1559.47 852.948 1541.73 992.888C1525.96 1132.83 1480.63 1270.8 1397.85 1396.94C1317.04 1521.12 1200.75 1631.49 1058.84 1684.71C918.894 1735.96 753.33 1728.07 597.621 1684.71C441.912 1641.35 294.087 1560.54 185.682 1444.25C77.2773 1327.96 6.3213 1172.25 0.408301 1018.51C-5.5047 864.773 53.6253 713.006 124.581 569.123C195.537 425.24 278.319 291.212 398.55 180.836C518.781 72.4314 674.49 -12.3215 824.286 1.47546C972.111 13.3015 1112.05 123.677 1228.34 234.053Z" fill="#FFF9F5" />
  </g>
  <defs>
    <clipPath id="clip0_6104_1824">
      <rect width="987" height="916" fill="white" />
    </clipPath>
  </defs>
</svg>