<svg width="741" height="727" viewBox="0 0 741 727" fill="none" xmlns="http://www.w3.org/2000/svg">
<path d="M612.042 66.408C668.893 119.457 683.365 212.783 697.836 304.145C712.307 395.507 726.779 484.904 688.533 541.883C649.254 599.843 558.291 626.368 474.564 645.033C389.804 663.698 311.245 674.505 234.754 657.804C159.297 641.103 83.8392 596.896 41.459 533.041C-0.921272 469.186 -11.2579 384.701 12.5164 314.951C37.3243 245.202 97.2769 191.171 160.33 139.104C223.384 88.0205 289.538 38.9012 373.265 21.2183C455.958 2.55294 555.19 14.3415 612.042 66.408Z" fill="#FFE2CC"/>
<path d="M664.928 66.1237C724.072 120.235 754.086 204.508 735.548 271.925C717.893 340.23 650.804 390.794 613.729 460.873C576.653 530.952 568.708 620.547 518.392 672.884C468.075 725.222 376.269 739.415 294.173 714.577C212.078 689.739 139.692 625.869 104.382 548.693C69.0724 470.631 70.8379 379.262 99.9686 308.296C129.982 236.442 188.244 184.105 248.27 129.993C307.415 76.7686 369.207 21.7699 443.358 5.80248C518.392 -10.1649 605.784 12.8991 664.928 66.1237Z" fill="#FFBFBC" fill-opacity="0.52"/>
<path d="M135.563 627.015C89.3025 574.931 82.9894 488.675 76.5417 404.216C70.0941 319.757 63.512 237.095 100.973 187.39C139.409 136.852 221.048 118.308 295.8 106.497C371.459 94.7501 441.138 89.8012 507.12 109.877C572.195 129.889 635.388 175.055 668.21 236.112C701.031 297.169 704.321 375.079 678.685 437.372C652.142 499.6 616.952 565.056 558.056 608.711C499.228 651.468 416.694 672.423 342.009 683.336C268.165 695.212 181.89 678.199 135.563 627.015Z" fill="url(#paint0_linear_6240_32)"/>
<defs>
<linearGradient id="paint0_linear_6240_32" x1="400.848" y1="94.669" x2="358.092" y2="692.133" gradientUnits="userSpaceOnUse">
<stop stop-color="#FFA866"/>
<stop offset="1" stop-color="#FFA866"/>
</linearGradient>
</defs>
</svg>
