<svg style="transform: rotate(180deg);" width="851" height="885" viewBox="0 0 851 885" fill="none" xmlns="http://www.w3.org/2000/svg">
<g clip-path="url(#clip0_6105_1404)">
<path d="M-533.362 548.13C-649.267 435.387 -741.527 324.695 -794.307 196.399C-847.093 70.0745 -862.376 -71.8905 -844.16 -211.77C-827.915 -351.657 -782.111 -489.471 -698.899 -615.332C-617.665 -739.228 -501 -849.207 -358.907 -901.94C-218.792 -952.708 -53.2562 -944.259 102.304 -900.366C257.864 -856.473 405.412 -775.158 513.42 -658.5C621.428 -541.841 691.852 -385.891 697.24 -232.134C702.629 -78.3767 642.981 73.1877 571.535 216.828C500.088 360.468 416.849 494.213 296.242 604.178C175.642 712.172 19.645 796.393 -130.103 782.085C-277.887 769.755 -417.45 658.902 -533.362 548.13Z" fill="#FFF9F5"/>
</g>
<defs>
<clipPath id="clip0_6105_1404">
<rect width="850.843" height="882" fill="white" transform="translate(847.838 884.898) rotate(-179.805)"/>
</clipPath>
</defs>
</svg>
