<svg width="687" height="721" viewBox="0 0 687 721" fill="none" xmlns="http://www.w3.org/2000/svg">
<path d="M538.86 123.374C584.44 184.826 609.38 245.413 638.62 319.849C667.86 393.418 700.54 480.837 679.9 556.138C659.26 630.573 585.3 694.622 504.46 713.664C423.62 732.706 335.04 707.605 253.34 674.715C170.78 640.96 93.38 599.414 47.8 532.769C2.21998 466.123 -11.54 375.242 12.54 301.672C37.48 227.237 100.26 170.112 165.62 112.987C230.98 55.8624 298.92 -1.26251 364.28 0.46855C430.5 3.06514 494.14 62.7866 538.86 123.374Z" fill="url(#paint0_linear_6108_299)"/>
<defs>
<linearGradient id="paint0_linear_6108_299" x1="0.845581" y1="720.249" x2="719.808" y2="35.5249" gradientUnits="userSpaceOnUse">
<stop stop-color="#FFAC6E"/>
<stop offset="1" stop-color="#FF903D"/>
</linearGradient>
</defs>
</svg>
