<svg width="687" height="721" viewBox="0 0 687 721" fill="none" xmlns="http://www.w3.org/2000/svg">
<path d="M538.86 123.374C584.44 184.826 609.38 245.413 638.62 319.849C667.86 393.418 700.54 480.837 679.9 556.138C659.26 630.573 585.3 694.622 504.46 713.664C423.62 732.706 335.04 707.605 253.34 674.715C170.78 640.96 93.38 599.414 47.8 532.769C2.21998 466.123 -11.54 375.242 12.54 301.672C37.48 227.237 100.26 170.112 165.62 112.987C230.98 55.8624 298.92 -1.26251 364.28 0.46855C430.5 3.06514 494.14 62.7866 538.86 123.374Z" fill="url(#paint0_linear_6277_23)"/>
<g filter="url(#filter0_d_6277_23)">
<path d="M239.244 479.897V237.293H257.46V479.897H239.244ZM250.836 459.197C236.852 459.197 224.34 456.805 213.3 452.021C202.444 447.237 193.796 440.245 187.356 431.045C180.916 421.845 177.604 410.713 177.42 397.649H218.268C218.452 403.169 219.832 408.137 222.408 412.553C225.168 416.969 228.94 420.465 233.724 423.041C238.508 425.617 244.12 426.905 250.56 426.905C256.264 426.905 261.14 425.985 265.188 424.145C269.42 422.305 272.64 419.729 274.848 416.417C277.24 413.105 278.436 409.057 278.436 404.273C278.436 399.121 277.056 394.705 274.296 391.025C271.72 387.345 268.132 384.217 263.532 381.641C258.932 379.065 253.596 376.765 247.524 374.741C241.636 372.533 235.288 370.325 228.48 368.117C213.208 363.149 201.524 356.525 193.428 348.245C185.516 339.965 181.56 328.925 181.56 315.125C181.56 303.349 184.32 293.321 189.84 285.041C195.544 276.761 203.364 270.413 213.3 265.997C223.42 261.581 234.828 259.373 247.524 259.373C260.588 259.373 272.088 261.673 282.024 266.273C291.96 270.689 299.78 277.129 305.484 285.593C311.372 294.057 314.5 304.085 314.868 315.677H273.468C273.284 311.445 272.088 307.581 269.88 304.085C267.672 300.405 264.636 297.461 260.772 295.253C256.908 293.045 252.308 291.941 246.972 291.941C242.372 291.757 238.14 292.493 234.276 294.149C230.596 295.621 227.652 297.921 225.444 301.049C223.236 303.993 222.132 307.765 222.132 312.365C222.132 316.965 223.236 320.829 225.444 323.957C227.652 326.901 230.688 329.477 234.552 331.685C238.6 333.893 243.292 336.009 248.628 338.033C253.964 339.873 259.76 341.805 266.016 343.829C275.768 347.141 284.692 351.097 292.788 355.697C300.884 360.113 307.324 365.909 312.108 373.085C317.076 380.261 319.56 389.737 319.56 401.513C319.56 411.817 316.892 421.385 311.556 430.217C306.22 438.865 298.492 445.857 288.372 451.193C278.252 456.529 265.74 459.197 250.836 459.197ZM429.807 459.197C412.143 459.197 396.963 454.965 384.267 446.501C371.571 438.037 361.819 426.353 355.011 411.449C348.203 396.361 344.799 378.973 344.799 359.285C344.799 339.597 348.203 322.301 355.011 307.397C361.819 292.309 371.571 280.533 384.267 272.069C396.963 263.605 412.143 259.373 429.807 259.373C447.471 259.373 462.559 263.605 475.071 272.069C487.767 280.533 497.519 292.309 504.327 307.397C511.135 322.301 514.539 339.597 514.539 359.285C514.539 378.973 511.135 396.361 504.327 411.449C497.519 426.353 487.767 438.037 475.071 446.501C462.559 454.965 447.471 459.197 429.807 459.197ZM429.807 424.421C438.823 424.421 446.735 421.753 453.543 416.417C460.351 411.081 465.687 403.629 469.551 394.061C473.415 384.309 475.347 372.717 475.347 359.285C475.347 345.853 473.415 334.353 469.551 324.785C465.687 315.033 460.351 307.489 453.543 302.153C446.735 296.817 438.823 294.149 429.807 294.149C420.791 294.149 412.879 296.817 406.071 302.153C399.263 307.489 393.927 315.033 390.063 324.785C386.199 334.353 384.267 345.853 384.267 359.285C384.267 372.717 386.199 384.309 390.063 394.061C393.927 403.629 399.263 411.081 406.071 416.417C412.879 421.753 420.791 424.421 429.807 424.421Z" fill="white"/>
</g>
<defs>
<filter id="filter0_d_6277_23" x="174.92" y="237.293" width="350.119" height="260.104" filterUnits="userSpaceOnUse" color-interpolation-filters="sRGB">
<feFlood flood-opacity="0" result="BackgroundImageFix"/>
<feColorMatrix in="SourceAlpha" type="matrix" values="0 0 0 0 0 0 0 0 0 0 0 0 0 0 0 0 0 0 127 0" result="hardAlpha"/>
<feOffset dx="4" dy="11"/>
<feGaussianBlur stdDeviation="3.25"/>
<feComposite in2="hardAlpha" operator="out"/>
<feColorMatrix type="matrix" values="0 0 0 0 0 0 0 0 0 0 0 0 0 0 0 0 0 0 0.25 0"/>
<feBlend mode="normal" in2="BackgroundImageFix" result="effect1_dropShadow_6277_23"/>
<feBlend mode="normal" in="SourceGraphic" in2="effect1_dropShadow_6277_23" result="shape"/>
</filter>
<linearGradient id="paint0_linear_6277_23" x1="0.845581" y1="720.249" x2="719.808" y2="35.5249" gradientUnits="userSpaceOnUse">
<stop stop-color="#FFAC6E"/>
<stop offset="1" stop-color="#FF903D"/>
</linearGradient>
</defs>
</svg>
