<svg width="10" height="10" viewBox="0 0 10 10" fill="none" xmlns="http://www.w3.org/2000/svg">
<path d="M6.6875 4.57813C7.45312 4.29688 7.90625 3.59375 7.90625 2.65625C7.90625 1.9375 7.6875 1.3125 7.14062 0.890625C6.65625 0.375 5.98438 0.15625 5.1875 0.15625H1.78125C1.54687 0.15625 1.375 0.328125 1.375 0.5625V9.42188C1.375 9.65625 1.54687 9.82813 1.78125 9.82813H5.6875C6.53125 9.82813 7.25 9.54688 7.79688 8.98438C8.34375 8.4375 8.64062 7.76563 8.64062 6.92188C8.625 5.75 7.90625 4.8125 6.6875 4.57813ZM3.48437 2.01563H4.85938C5.48438 2.01563 5.92188 2.45313 5.92188 3C5.92188 3.54688 5.46875 4.01563 4.85938 4.01563H3.48437V2.01563ZM5.29688 7.95313H3.48437V5.6875H5.3125C6.03125 5.6875 6.57812 6.125 6.57812 6.79688C6.57812 7.46875 6.03125 7.95313 5.29688 7.95313Z" fill="#333333"/>
</svg>
