<svg width="10" height="10" viewBox="0 0 10 10" fill="none" xmlns="http://www.w3.org/2000/svg">
<path d="M9.9 8.8H0.1C0.045 8.8 0 8.845 0 8.9V9.9C0 9.955 0.045 10 0.1 10H9.9C9.955 10 10 9.955 10 9.9V8.9C10 8.845 9.955 8.8 9.9 8.8ZM1.77125 7.8H2.83375C2.88625 7.8 2.93375 7.76625 2.95 7.715L3.62125 5.64H6.36125L7.02625 7.715C7.0425 7.765 7.08875 7.8 7.1425 7.8H8.25625C8.27 7.8 8.28375 7.7975 8.29625 7.79375C8.31139 7.78855 8.32536 7.78041 8.33733 7.76979C8.34931 7.75917 8.35907 7.74629 8.36604 7.73188C8.37302 7.71747 8.37707 7.70182 8.37796 7.68583C8.37885 7.66985 8.37657 7.65385 8.37125 7.63875L5.77 0.0825C5.76157 0.0586397 5.74602 0.0379386 5.72546 0.0231871C5.7049 0.00843555 5.68031 0.00034287 5.655 0H4.37625C4.32375 0 4.2775 0.0325 4.26125 0.0825L1.65625 7.63875C1.65125 7.65125 1.65 7.665 1.65 7.67875C1.64875 7.745 1.70375 7.8 1.77125 7.8ZM4.97 1.34875H5.02125L6.06875 4.64625H3.91125L4.97 1.34875Z" fill="#333333" stroke="#333333" stroke-width="0.001"/>
</svg>
