<svg width="10" height="8" viewBox="0 0 10 8" fill="none" xmlns="http://www.w3.org/2000/svg">
<path d="M2.7125 1.39062H9.7125C9.8625 1.39062 10 1.23437 10 1.03125C10 0.828125 9.875 0.671875 9.7125 0.671875H2.7125C2.5625 0.671875 2.425 0.828125 2.425 1.03125C2.425 1.23437 2.5625 1.39062 2.7125 1.39062Z" fill="#333333"/>
<path d="M9.7125 3.32812H2.7125C2.5625 3.32812 2.425 3.48438 2.425 3.6875C2.425 3.89063 2.55 4.04688 2.7125 4.04688H9.7125C9.8625 4.04688 10 3.89063 10 3.6875C10 3.48438 9.8625 3.32812 9.7125 3.32812Z" fill="#333333"/>
<path d="M9.7125 5.96875H2.7125C2.5625 5.96875 2.425 6.125 2.425 6.32812C2.425 6.53125 2.55 6.6875 2.7125 6.6875H9.7125C9.8625 6.6875 10 6.53125 10 6.32812C10 6.125 9.8625 5.96875 9.7125 5.96875Z" fill="#333333"/>
<path d="M1.71319 1C1.71319 1.46944 1.33264 1.85 0.863193 1.85C0.393751 1.85 0.0131933 1.46944 0.0131933 1C0.0131933 0.530558 0.393751 0.15 0.863193 0.15C1.33264 0.15 1.71319 0.530558 1.71319 1Z" fill="#333333"/>
<path d="M1.7 3.65C1.7 4.11944 1.31944 4.5 0.85 4.5C0.380558 4.5 0 4.11944 0 3.65C0 3.18056 0.380558 2.8 0.85 2.8C1.31944 2.8 1.7 3.18056 1.7 3.65Z" fill="#333333"/>
<path d="M1.7 6.23813C1.7 6.70757 1.31944 7.08813 0.85 7.08813C0.380558 7.08813 0 6.70757 0 6.23813C0 5.76868 0.380558 5.38813 0.85 5.38813C1.31944 5.38813 1.7 5.76868 1.7 6.23813Z" fill="#333333"/>
</svg>
